<?xml version="1.0" encoding="UTF-8"?>
<svg id="Camada_1" data-name="Camada 1" xmlns="http://www.w3.org/2000/svg" version="1.1" xmlns:inkscape="http://www.inkscape.org/namespaces/inkscape" xmlns:sodipodi="http://sodipodi.sourceforge.net/DTD/sodipodi-0.dtd" xmlns:svg="http://www.w3.org/2000/svg" xmlns:xlink="http://www.w3.org/1999/xlink" viewBox="0 0 612 792">
  <defs>
    <style>
      .cls-1, .cls-2, .cls-3, .cls-4, .cls-5, .cls-6, .cls-7, .cls-8, .cls-9, .cls-10, .cls-11 {
        isolation: isolate;
      }

      .cls-1, .cls-2, .cls-10 {
        font-size: 11.6px;
      }

      .cls-1, .cls-12, .cls-4, .cls-7, .cls-10, .cls-13 {
        fill: #4a4f52;
      }

      .cls-1, .cls-6 {
        font-family: NunitoSans10pt-Bold, 'Nunito Sans 10pt';
      }

      .cls-1, .cls-6, .cls-11 {
        font-weight: 700;
      }

      .cls-14 {
        fill: url(#Gradiente_sem_nome_2);
      }

      .cls-14, .cls-15, .cls-16, .cls-12, .cls-17, .cls-18, .cls-19, .cls-20, .cls-21, .cls-22, .cls-23, .cls-24, .cls-13, .cls-25, .cls-26 {
        stroke-width: 0px;
      }

      .cls-2, .cls-3, .cls-4, .cls-7, .cls-10 {
        font-family: NunitoSans10pt-Light, 'Nunito Sans 10pt';
        font-weight: 300;
      }

      .cls-2, .cls-3, .cls-18, .cls-6, .cls-27, .cls-21, .cls-28 {
        fill: #e41313;
      }

      .cls-15 {
        fill: #0055d4;
      }

      .cls-16, .cls-21, .cls-13 {
        fill-rule: evenodd;
      }

      .cls-16, .cls-23 {
        fill: #ff8e2a;
      }

      .cls-3 {
        font-size: 7.7px;
      }

      .cls-4 {
        font-size: 20.4px;
      }

      .cls-29 {
        clip-path: url(#clippath-2);
      }

      .cls-17 {
        fill: #0047b6;
      }

      .cls-30 {
        clip-path: url(#clippath-6);
      }

      .cls-19 {
        fill: #cf0;
      }

      .cls-6 {
        font-size: 36.5px;
      }

      .cls-20, .cls-31, .cls-32, .cls-9 {
        fill: none;
      }

      .cls-33 {
        clip-path: url(#clippath-7);
      }

      .cls-34 {
        clip-path: url(#clippath-1);
      }

      .cls-35 {
        clip-path: url(#clippath-4);
      }

      .cls-7, .cls-8, .cls-11 {
        font-size: 9.4px;
      }

      .cls-8 {
        font-family: ArialMT, Arial;
      }

      .cls-8, .cls-11 {
        fill: #000;
      }

      .cls-31 {
        stroke-width: .8px;
      }

      .cls-31, .cls-27, .cls-32, .cls-28, .cls-9 {
        stroke-miterlimit: 21.2;
      }

      .cls-31, .cls-27, .cls-28 {
        stroke: #e41313;
      }

      .cls-32, .cls-9 {
        stroke: #b8bbc2;
        stroke-width: .4px;
      }

      .cls-36 {
        clip-path: url(#clippath);
      }

      .cls-22 {
        fill: url(#Gradiente_sem_nome);
      }

      .cls-28 {
        stroke-width: .7px;
      }

      .cls-37 {
        clip-path: url(#clippath-3);
      }

      .cls-9 {
        opacity: .6;
      }

      .cls-38 {
        clip-path: url(#clippath-8);
      }

      .cls-39 {
        clip-path: url(#clippath-5);
      }

      .cls-24 {
        fill: url(#Gradiente_sem_nome_3);
      }

      .cls-25 {
        fill: #f0f0f0;
      }

      .cls-11 {
        font-family: Arial-BoldMT, Arial;
      }

      .cls-26 {
        fill: #dedfe8;
      }
    </style>
    <clipPath id="clippath">
      <rect class="cls-20" x="-10.3" y="169.3" width="632.6" height="453.3"/>
    </clipPath>
    <clipPath id="clippath-1">
      <rect class="cls-20" x="-10.3" y="169.3" width="632.6" height="453.3"/>
    </clipPath>
    <clipPath id="clippath-2">
      <rect class="cls-20" x="-10.3" y="169.3" width="632.6" height="453.3"/>
    </clipPath>
    <clipPath id="clippath-3">
      <rect class="cls-20" x="-10.3" y="169.3" width="632.6" height="453.3"/>
    </clipPath>
    <clipPath id="clippath-4">
      <rect class="cls-20" x="-10.3" y="169.3" width="632.6" height="453.3"/>
    </clipPath>
    <clipPath id="clippath-5">
      <rect class="cls-20" x="-10.3" y="169.3" width="632.6" height="453.3"/>
    </clipPath>
    <clipPath id="clippath-6">
      <rect class="cls-20" x="-10.3" y="169.3" width="632.6" height="453.3"/>
    </clipPath>
    <clipPath id="clippath-7">
      <rect class="cls-20" x="-10.3" y="169.3" width="632.6" height="453.3"/>
    </clipPath>
    <clipPath id="clippath-8">
      <rect class="cls-20" x="-10.3" y="169.3" width="632.6" height="453.3"/>
    </clipPath>
    <linearGradient id="Gradiente_sem_nome" data-name="Gradiente sem nome" x1="1948.4" y1="954.4" x2="1711.2" y2="1061.9" gradientTransform="translate(-289 -40.5) scale(.3)" gradientUnits="userSpaceOnUse">
      <stop offset="0" stop-color="#fea842"/>
      <stop offset="1" stop-color="#fea842" stop-opacity="0"/>
    </linearGradient>
    <linearGradient id="Gradiente_sem_nome_2" data-name="Gradiente sem nome 2" x1="2099.7" y1="949.4" x2="2008.8" y2="1040.8" gradientTransform="translate(-289 -40.5) scale(.3)" gradientUnits="userSpaceOnUse">
      <stop offset="0" stop-color="#3aaaf3"/>
      <stop offset="1" stop-color="#3aaaf3" stop-opacity="0"/>
    </linearGradient>
    <linearGradient id="Gradiente_sem_nome_3" data-name="Gradiente sem nome 3" x1="2055.9" y1="1041.4" x2="2077.2" y2="999.3" gradientTransform="translate(-289 -40.5) scale(.3)" gradientUnits="userSpaceOnUse">
      <stop offset="0" stop-color="#9fc700"/>
      <stop offset="1" stop-color="#9fc700" stop-opacity="0"/>
    </linearGradient>
  </defs>
  <g id="svg642" inkscape:export-filename="FLISol-DF 2024 Certificate Organizer.png" inkscape:export-xdpi="533.33002" inkscape:export-ydpi="533.33002" inkscape:version="1.3.2 (091e20e, 2023-11-25, custom)">
    <sodipodi:namedview id="namedview644" bordercolor="#000000" borderopacity="0.25" inkscape:current-layer="g4" inkscape:cx="126.66508" inkscape:cy="146.76261" inkscape:deskcolor="#d1d1d1" inkscape:pagecheckerboard="0" inkscape:pageopacity="0.0" inkscape:showpageshadow="2" inkscape:window-height="1017" inkscape:window-maximized="1" inkscape:window-width="2560" inkscape:window-x="-8" inkscape:window-y="-8" inkscape:zoom="2.9605633" pagecolor="#ffffff" showgrid="true">
      <inkscape:grid id="grid3360" originx="0" originy="0" spacingx="1" spacingy="1" type="xygrid" units="px" visible="true"/>
    </sodipodi:namedview>
    <rect id="rect324" class="cls-25" x="-10.3" y="169.3" width="632.6" height="453.3"/>
    <path id="path422" class="cls-12" d="M401.2,622.7h139.8l-69.9-69.9-69.9,69.9Z"/>
    <g id="g23846">
      <path id="path424" class="cls-32" d="M269.7,105l-140.9,140.9L-12.2,105"/>
      <path id="path426" class="cls-32" d="M262.3,105l-133.5,133.5L-4.7,105"/>
      <path id="path428" class="cls-32" d="M254.8,105l-126.1,126.1L2.7,105"/>
      <path id="path430" class="cls-32" d="M247.4,105l-118.6,118.6L10.1,105"/>
      <path id="path432" class="cls-32" d="M240,105l-111.2,111.2L17.6,105"/>
      <path id="path434" class="cls-32" d="M232.5,105l-103.8,103.8L25,105"/>
      <path id="path436" class="cls-32" d="M225.1,105l-96.3,96.3L32.4,105"/>
    </g>
    <path id="path438" class="cls-26" d="M501.7,169.3l120.6,120.6v-120.6h-120.6,0Z"/>
    <path id="path440" class="cls-21" d="M472.2,305.5l48.9,48.9-48.9,48.9-48.9-48.9,48.9-48.9h0Z"/>
    <path id="path442" class="cls-13" d="M401.5,299.7l22.7,22.7-22.7,22.7-22.7-22.7,22.7-22.7Z"/>
    <g id="g24142">
      <path id="path447" class="cls-12" d="M441.7,355.6c0,.6-.5,1.1-1.1,1.1s-1.1-.5-1.1-1.1.5-1.1,1.1-1.1,1.1.5,1.1,1.1"/>
      <path id="path449" class="cls-12" d="M452.2,355.6c0,.6-.5,1.1-1.1,1.1s-1.1-.5-1.1-1.1.5-1.1,1.1-1.1,1.1.5,1.1,1.1"/>
      <path id="path451" class="cls-12" d="M462.8,355.6c0,.6-.5,1.1-1.1,1.1s-1.1-.5-1.1-1.1.5-1.1,1.1-1.1,1.1.5,1.1,1.1"/>
      <path id="path453" class="cls-12" d="M473.3,355.6c0,.6-.5,1.1-1.1,1.1s-1.1-.5-1.1-1.1.5-1.1,1.1-1.1,1.1.5,1.1,1.1"/>
      <path id="path455" class="cls-12" d="M441.7,366.1c0,.6-.5,1.1-1.1,1.1s-1.1-.5-1.1-1.1.5-1.1,1.1-1.1,1.1.5,1.1,1.1"/>
      <path id="path457" class="cls-12" d="M452.2,366.1c0,.6-.5,1.1-1.1,1.1s-1.1-.5-1.1-1.1.5-1.1,1.1-1.1,1.1.5,1.1,1.1"/>
      <path id="path459" class="cls-12" d="M462.8,366.1c0,.6-.5,1.1-1.1,1.1s-1.1-.5-1.1-1.1.5-1.1,1.1-1.1,1.1.5,1.1,1.1"/>
      <path id="path461" class="cls-12" d="M473.3,366.1c0,.6-.5,1.1-1.1,1.1s-1.1-.5-1.1-1.1.5-1.1,1.1-1.1,1.1.5,1.1,1.1"/>
      <path id="path463" class="cls-12" d="M441.7,376.7c0,.6-.5,1.1-1.1,1.1s-1.1-.5-1.1-1.1.5-1.1,1.1-1.1,1.1.5,1.1,1.1"/>
      <path id="path465" class="cls-12" d="M452.2,376.7c0,.6-.5,1.1-1.1,1.1s-1.1-.5-1.1-1.1.5-1.1,1.1-1.1,1.1.5,1.1,1.1"/>
      <path id="path467" class="cls-12" d="M462.8,376.7c0,.6-.5,1.1-1.1,1.1s-1.1-.5-1.1-1.1.5-1.1,1.1-1.1,1.1.5,1.1,1.1"/>
      <path id="path469" class="cls-12" d="M473.3,376.7c0,.6-.5,1.1-1.1,1.1s-1.1-.5-1.1-1.1.5-1.1,1.1-1.1,1.1.5,1.1,1.1"/>
      <path id="path471" class="cls-12" d="M441.7,387.3c0,.6-.5,1.1-1.1,1.1s-1.1-.5-1.1-1.1.5-1.1,1.1-1.1,1.1.5,1.1,1.1"/>
      <path id="path473" class="cls-12" d="M452.2,387.3c0,.6-.5,1.1-1.1,1.1s-1.1-.5-1.1-1.1.5-1.1,1.1-1.1,1.1.5,1.1,1.1"/>
      <path id="path475" class="cls-12" d="M462.8,387.3c0,.6-.5,1.1-1.1,1.1s-1.1-.5-1.1-1.1.5-1.1,1.1-1.1,1.1.5,1.1,1.1"/>
      <path id="path477" class="cls-12" d="M473.3,387.3c0,.6-.5,1.1-1.1,1.1s-1.1-.5-1.1-1.1.5-1.1,1.1-1.1,1.1.5,1.1,1.1"/>
    </g>
    <g id="g24740">
      <g class="cls-36">
        <path id="path479" class="cls-31" d="M643.7,393.9l-115.7,115.7-143.5,143.5" sodipodi:nodetypes="ccc"/>
      </g>
      <g class="cls-34">
        <path id="path481" class="cls-31" d="M643.7,408l-245.2,245.2"/>
      </g>
      <g class="cls-29">
        <path id="path483" class="cls-31" d="M643.7,422l-231.1,231.1"/>
      </g>
      <g class="cls-37">
        <path id="path485" class="cls-31" d="M643.7,436.1l-217.1,217.1"/>
      </g>
      <g class="cls-35">
        <path id="path487" class="cls-31" d="M643.7,450.1l-203,203"/>
      </g>
    </g>
    <g id="g24149">
      <path id="path495" class="cls-9" d="M643.7,338.9l-189.9-189.9"/>
      <path id="path502" class="cls-9" d="M643.7,347.6l-198.5-198.5"/>
      <path id="path509" class="cls-9" d="M643.7,356.3l-207.2-207.2"/>
      <path id="path516" class="cls-9" d="M643.7,364.9l-215.9-215.9"/>
      <path id="path523" class="cls-9" d="M643.7,373.6l-224.5-224.5"/>
    </g>
    <path id="path537" class="cls-18" d="M497.1,169.3l-69.8,69.8,196,196v-63.6l-132.4-132.4,69.8-69.8h-63.6Z"/>
    <g class="cls-39">
      <path id="path542" class="cls-12" d="M655.5,617v-63.6l-123.3-123.3,123.3-123.3v-63.6l-187,187,187,187v-.2Z"/>
    </g>
    <g class="cls-30">
      <path id="path544" class="cls-18" d="M341.9,682l129.2-129.2,129.2,129.2h63.6l-192.9-192.9-192.9,192.9h63.8Z"/>
    </g>
    <g class="cls-33">
      <path id="path546" class="cls-12" d="M101.5,136.1L-43.5,281.2v63.6l208.7-208.7h-63.7Z"/>
    </g>
    <g id="g23837">
      <path id="path548" class="cls-18" d="M101.8,211.4c-.4-.4-.4-1.1,0-1.6s1.1-.4,1.6,0c.4.4.4,1.1,0,1.6-.4.4-1.1.4-1.6,0"/>
      <path id="path550" class="cls-18" d="M94.3,218.9c-.4-.4-.4-1.1,0-1.6.4-.4,1.1-.4,1.6,0,.4.4.4,1.1,0,1.6-.4.4-1.1.4-1.6,0"/>
      <path id="path552" class="cls-18" d="M86.9,226.3c-.4-.4-.4-1.1,0-1.6.4-.4,1.1-.4,1.6,0,.4.4.4,1.1,0,1.6-.4.4-1.1.4-1.6,0"/>
      <path id="path554" class="cls-18" d="M79.4,233.8c-.4-.4-.4-1.1,0-1.6.4-.4,1.1-.4,1.6,0,.4.4.4,1.1,0,1.6-.4.4-1.1.4-1.6,0"/>
      <path id="path556" class="cls-18" d="M94.3,203.9c-.4-.4-.4-1.1,0-1.6.4-.4,1.1-.4,1.6,0,.4.4.4,1.1,0,1.6-.4.4-1.1.4-1.6,0"/>
      <path id="path558" class="cls-18" d="M86.9,211.4c-.4-.4-.4-1.1,0-1.6.4-.4,1.1-.4,1.6,0,.4.4.4,1.1,0,1.6s-1.1.4-1.6,0"/>
      <path id="path560" class="cls-18" d="M79.4,218.9c-.4-.4-.4-1.1,0-1.6.4-.4,1.1-.4,1.6,0,.4.4.4,1.1,0,1.6-.4.4-1.1.4-1.6,0"/>
      <path id="path562" class="cls-18" d="M71.9,226.3c-.4-.4-.4-1.1,0-1.6.4-.4,1.1-.4,1.6,0,.4.4.4,1.1,0,1.6-.4.4-1.1.4-1.6,0"/>
      <path id="path564" class="cls-18" d="M86.9,196.5c-.4-.4-.4-1.1,0-1.6.4-.4,1.1-.4,1.6,0,.4.4.4,1.1,0,1.6s-1.1.4-1.6,0"/>
      <path id="path566" class="cls-18" d="M79.4,203.9c-.4-.4-.4-1.1,0-1.6.4-.4,1.1-.4,1.6,0,.4.4.4,1.1,0,1.6-.4.4-1.1.4-1.6,0"/>
      <path id="path568" class="cls-18" d="M71.9,211.4c-.4-.4-.4-1.1,0-1.6s1.1-.4,1.6,0c.4.4.4,1.1,0,1.6-.4.4-1.1.4-1.6,0"/>
      <path id="path570" class="cls-18" d="M64.5,218.9c-.4-.4-.4-1.1,0-1.6.4-.4,1.1-.4,1.6,0,.4.4.4,1.1,0,1.6-.4.4-1.1.4-1.6,0"/>
      <path id="path572" class="cls-18" d="M79.4,189c-.4-.4-.4-1.1,0-1.6s1.1-.4,1.6,0c.4.4.4,1.1,0,1.6-.4.4-1.1.4-1.6,0"/>
      <path id="path574" class="cls-18" d="M71.9,196.5c-.4-.4-.4-1.1,0-1.6.4-.4,1.1-.4,1.6,0,.4.4.4,1.1,0,1.6-.4.4-1.1.4-1.6,0"/>
      <path id="path576" class="cls-18" d="M64.5,203.9c-.4-.4-.4-1.1,0-1.6.4-.4,1.1-.4,1.6,0,.4.4.4,1.1,0,1.6s-1.1.4-1.6,0"/>
      <path id="path578" class="cls-18" d="M57,211.4c-.4-.4-.4-1.1,0-1.6.4-.4,1.1-.4,1.6,0,.4.4.4,1.1,0,1.6-.4.4-1.1.4-1.6,0"/>
    </g>
    <g class="cls-38">
      <path id="path580" class="cls-21" d="M-5.8,200.8l37.7,37.7-37.7,37.7-37.7-37.7L-5.8,200.8Z"/>
    </g>
    <g id="g24452">
      <path id="path582" class="cls-12" d="M338.7,563.3c0,.6-.5,1.1-1.1,1.1s-1.1-.5-1.1-1.1.5-1.1,1.1-1.1,1.1.5,1.1,1.1"/>
      <path id="path584" class="cls-12" d="M349.2,563.3c0,.6-.5,1.1-1.1,1.1s-1.1-.5-1.1-1.1.5-1.1,1.1-1.1,1.1.5,1.1,1.1"/>
      <path id="path586" class="cls-12" d="M359.8,563.3c0,.6-.5,1.1-1.1,1.1s-1.1-.5-1.1-1.1.5-1.1,1.1-1.1,1.1.5,1.1,1.1"/>
      <path id="path588" class="cls-12" d="M370.4,563.3c0,.6-.5,1.1-1.1,1.1s-1.1-.5-1.1-1.1.5-1.1,1.1-1.1,1.1.5,1.1,1.1"/>
      <path id="path590" class="cls-12" d="M380.9,563.3c0,.6-.5,1.1-1.1,1.1s-1.1-.5-1.1-1.1.5-1.1,1.1-1.1,1.1.5,1.1,1.1"/>
      <path id="path592" class="cls-12" d="M391.5,563.3c0,.6-.5,1.1-1.1,1.1s-1.1-.5-1.1-1.1.5-1.1,1.1-1.1,1.1.5,1.1,1.1"/>
      <path id="path594" class="cls-12" d="M402.1,563.3c0,.6-.5,1.1-1.1,1.1s-1.1-.5-1.1-1.1.5-1.1,1.1-1.1,1.1.5,1.1,1.1"/>
      <path id="path596" class="cls-12" d="M338.7,573.9c0,.6-.5,1.1-1.1,1.1s-1.1-.5-1.1-1.1.5-1.1,1.1-1.1,1.1.5,1.1,1.1"/>
      <path id="path598" class="cls-12" d="M349.2,573.9c0,.6-.5,1.1-1.1,1.1s-1.1-.5-1.1-1.1.5-1.1,1.1-1.1,1.1.5,1.1,1.1"/>
      <path id="path600" class="cls-12" d="M359.8,573.9c0,.6-.5,1.1-1.1,1.1s-1.1-.5-1.1-1.1.5-1.1,1.1-1.1,1.1.5,1.1,1.1"/>
      <path id="path602" class="cls-12" d="M370.4,573.9c0,.6-.5,1.1-1.1,1.1s-1.1-.5-1.1-1.1.5-1.1,1.1-1.1,1.1.5,1.1,1.1"/>
      <path id="path604" class="cls-12" d="M380.9,573.9c0,.6-.5,1.1-1.1,1.1s-1.1-.5-1.1-1.1.5-1.1,1.1-1.1,1.1.5,1.1,1.1"/>
      <path id="path606" class="cls-12" d="M391.5,573.9c0,.6-.5,1.1-1.1,1.1s-1.1-.5-1.1-1.1.5-1.1,1.1-1.1,1.1.5,1.1,1.1"/>
      <path id="path608" class="cls-12" d="M402.1,573.9c0,.6-.5,1.1-1.1,1.1s-1.1-.5-1.1-1.1.5-1.1,1.1-1.1,1.1.5,1.1,1.1"/>
      <path id="path610" class="cls-12" d="M338.7,584.5c0,.6-.5,1.1-1.1,1.1s-1.1-.5-1.1-1.1.5-1.1,1.1-1.1,1.1.5,1.1,1.1"/>
      <path id="path612" class="cls-12" d="M349.2,584.5c0,.6-.5,1.1-1.1,1.1s-1.1-.5-1.1-1.1.5-1.1,1.1-1.1,1.1.5,1.1,1.1"/>
      <path id="path614" class="cls-12" d="M359.8,584.5c0,.6-.5,1.1-1.1,1.1s-1.1-.5-1.1-1.1.5-1.1,1.1-1.1,1.1.5,1.1,1.1"/>
      <path id="path616" class="cls-12" d="M370.4,584.5c0,.6-.5,1.1-1.1,1.1s-1.1-.5-1.1-1.1.5-1.1,1.1-1.1,1.1.5,1.1,1.1"/>
      <path id="path618" class="cls-12" d="M380.9,584.5c0,.6-.5,1.1-1.1,1.1s-1.1-.5-1.1-1.1.5-1.1,1.1-1.1,1.1.5,1.1,1.1"/>
      <path id="path620" class="cls-12" d="M391.5,584.5c0,.6-.5,1.1-1.1,1.1s-1.1-.5-1.1-1.1.5-1.1,1.1-1.1,1.1.5,1.1,1.1"/>
      <path id="path622" class="cls-12" d="M402.1,584.5c0,.6-.5,1.1-1.1,1.1s-1.1-.5-1.1-1.1.5-1.1,1.1-1.1,1.1.5,1.1,1.1"/>
    </g>
    <g id="g2">
      <path id="path20109-7" class="cls-23" d="M357.5,208.4c-.5,0-.9,0-1.3.5l-6.8,7.8c-.7.7-.9,1.5-.2,2.5,2.6,3,5.5,5.1,5.5,5.1.5.4,1,.3,1.6-.2l3.4-3.6c.6-.7.4-1.3-.1-1.8l-3.7-3.5-.4.4,3.2,4.2-3.3,3.4-4.8-4.9,7-7.4,8.1,8.8-14.9,15,2.6,2.8,15-15.7c1-.9,1-2.8,0-3.7l-9.6-9c-.4-.4-.8-.6-1.3-.6h0ZM343.7,208.4c-1.1,0-2.1.3-2.2,1.2-.3,2.2,3.5,1.4,3.5,1.4l1.4,15.6h.9c0,.1-.6-17.8-.6-17.8,0,0-1.5-.4-2.9-.4h0ZM340.7,214c-.6,0-1.1.3-1.3.7-.4.8.3,1.8,1.4,2.4h0c1.1.5,2.4.3,2.7-.4.4-.8-.3-1.8-1.4-2.4h0c-.5-.2-.9-.3-1.4-.3h0ZM327.5,216c-.7,0-1.4.2-1.8.7l-9,9.6c-.8.8-.9,1.8-.2,2.6l7.8,6.8c.7.7,1.5.9,2.5.2,3-2.6,5.1-5.5,5.1-5.5.4-.5.3-1-.2-1.6l-3.6-3.4c-.7-.6-1.3-.4-1.8.1l-3.5,3.7.4.4,4.2-3.2,3.4,3.3-4.9,4.8-7.4-7,8.8-8.1,15,14.9,2.8-2.6-15.7-15c-.4-.5-1.1-.7-1.8-.7h0ZM342.4,218.2c-.6,0-1.1.3-1.3.7-.4.8.3,1.8,1.4,2.4,1.1.5,2.4.3,2.7-.4h0c.4-.8-.3-1.8-1.4-2.4h0c-.5-.2-.9-.3-1.4-.3h0ZM370.1,231.7c-.7,0-1.5.6-2,1.5-.5,1.1-.3,2.4.4,2.7h0c.8.4,1.8-.3,2.4-1.4.5-1.1.3-2.4-.4-2.7-.1,0-.3,0-.4-.1ZM365.9,233.4c-.7,0-1.5.6-2,1.5-.5,1.1-.3,2.4.4,2.7.8.4,1.8-.3,2.4-1.4h0c.5-1.1.3-2.4-.4-2.7-.1,0-.3,0-.4-.1ZM375.4,233.9c-1.9,0-1.2,3.5-1.2,3.5l-15.6,1.4v.9c-.1,0,17.8-.6,17.8-.6,0,0,1.4-4.8-.8-5.2h-.2,0ZM334.4,237.9l-17.9.6s-1.4,4.8.8,5.2c2.2.3,1.4-3.5,1.4-3.5l15.6-1.4v-.9h.1ZM328,239.9c-.7,0-1.5.6-2,1.5-.5,1.1-.3,2.4.4,2.7.8.4,1.8-.3,2.4-1.4h0c.5-1.1.3-2.4-.4-2.7h0c-.1,0-.3,0-.4-.1ZM339.4,240.1l-15,15.7c-1,.9-1,2.8,0,3.7l9.6,9c.8.8,1.8.9,2.6.2l6.8-7.8c.7-.7.9-1.5.2-2.5-2.6-3-5.5-5.1-5.5-5.1-.5-.4-1-.3-1.6.2l-3.4,3.6c-.6.7-.4,1.3.1,1.8l3.7,3.5.4-.4-3.2-4.2,3.3-3.4,4.8,4.9-7,7.4-8.1-8.8,14.9-15-2.6-2.8h0ZM367.3,241.2c-.4,0-.8,0-1.3.4-3,2.6-5.1,5.5-5.1,5.5-.4.5-.3,1,.2,1.6l3.6,3.4c.7.6,1.3.4,1.8-.1l3.5-3.7-.4-.4-4.2,3.2-3.4-3.3,4.9-4.8,7.4,7-8.8,8.1-15-14.9-2.8,2.6,15.7,15c.9,1,2.8,1,3.7,0l9-9.6c.8-.8.9-1.8.2-2.6l-7.8-6.8c-.4-.3-.7-.6-1.2-.6h0ZM323.8,241.6c-.7,0-1.5.6-2,1.5-.5,1.1-.3,2.4.4,2.7.8.4,1.8-.3,2.4-1.4h0c.5-1.1.3-2.4-.4-2.7-.1,0-.3,0-.4-.1ZM345.5,250.8l.6,17.9s4.8,1.4,5.2-.8c.3-2.2-3.5-1.4-3.5-1.4l-1.4-15.6h-.9ZM348.9,256c-.6,0-1.1.3-1.3.7-.4.8.3,1.8,1.4,2.4h0c1.1.5,2.4.3,2.7-.4.4-.8-.3-1.8-1.4-2.4h0c-.5-.2-.9-.3-1.4-.3h0ZM350.6,260.3c-.6,0-1.1.3-1.3.7-.4.8.3,1.8,1.4,2.4h0c1.1.5,2.4.3,2.7-.4.4-.8-.3-1.8-1.4-2.4h0c-.5-.2-.9-.3-1.4-.3h0Z"/>
      <path id="path20219-1" class="cls-16" d="M268,222.2c-1.2,0-2.2,1-2.2,2.2h0v28.8c0,1.2,1,2.2,2.2,2.2s2.2-1,2.2-2.2v-28.8c0-1.2-.9-2.2-2.2-2.2h0ZM252.5,222.3c-1.2,0-2.2,1-2.2,2.2h0v22.5c0,4.6,3.8,8.4,8.4,8.4h3.9c1.2,0,2.2-.9,2.3-2.1,0-1.2-.9-2.2-2.1-2.3h-4.1c-2.3,0-4-1.8-4-4v-22.5c0-1.2-.9-2.2-2.2-2.2h0ZM310,222.3c-1.2,0-2.2,1-2.1,2.2v22.5c0,4.6,3.8,8.4,8.4,8.4h3.9c1.2,0,2.2-.9,2.3-2.1,0-1.2-.9-2.2-2.1-2.3h-4.1c-2.3,0-4-1.8-4-4v-22.5c0-1.2-.9-2.2-2.2-2.2h0ZM243.3,222.3c-4.6,0-8.4,3.8-8.4,8.4v5.2c-1.2.2-2,1.4-1.7,2.6.2.9.9,1.6,1.7,1.7v13c0,1.2.9,2.2,2.1,2.3,1.2,0,2.2-.9,2.3-2.1v-13.2h6.8c1.2,0,2.2-1,2.2-2.2s-1-2.2-2.2-2.2h-6.8v-5.2c0-2.3,1.8-4,4-4h3.9c1.2,0,2.2-.9,2.3-2.1s-.9-2.2-2.1-2.3h-4.1ZM278.3,222.6h-.1s-1.8.2-3.5,1.3c-1.8,1.1-3.6,3.4-3.6,6.8s1.1,5.5,2.5,7.1c1.5,1.6,3.2,2.5,4.6,3.4,1.5,1,3,1.9,3.9,2.7.9.9,1.3,1.5,1.3,2.9,0,2.9-2.2,4.4-3.7,4.4-2.7,0-5.3-.2-5.3-.2-1.1,0-2.1.8-2.2,1.9,0,1.1.8,2.1,1.9,2.2,0,0,2.7.2,5.6.2s7.8-3.5,7.8-8.5-1.2-4.5-2.6-5.9-3.1-2.3-4.4-3.2c-1.6-1-2.9-1.8-3.8-2.8-.9-.9-1.5-2-1.5-4.3s.8-2.8,1.7-3.4c.9-.5,1.7-.7,1.8-.7h5.4c1.1,0,2.1-.8,2.1-1.9s-.8-2.1-1.9-2.1h-6ZM294.6,230.8c-3.4,0-6.2,2.8-6.2,6.2v12.2c0,3.4,2.8,6.2,6.2,6.2h5.7c3.4,0,6.2-2.8,6.2-6.2v-12.2c0-3.4-2.8-6.2-6.2-6.2h-5.7ZM294.6,235.1h5.7c1.1,0,1.9.8,1.9,1.9v12.2c0,1.1-.8,1.9-1.9,1.9h-5.7c-1.1,0-1.9-.8-1.9-1.9v-12.2c0-1.1.8-1.9,1.9-1.9Z" inkscape:connector-curvature="0"/>
      <path id="path20109-9" class="cls-22" d="M357.5,208.4c-.5,0-.9,0-1.3.5l-6.8,7.8c-.7.7-.9,1.5-.2,2.5,2.6,3,5.5,5.1,5.5,5.1.5.4,1,.3,1.6-.2l3.4-3.6c.6-.7.4-1.3-.1-1.8l-3.7-3.5-.4.4,3.2,4.2-3.3,3.4-4.8-4.9,7-7.4,8.1,8.8-14.9,15,2.6,2.8,15-15.7c1-.9,1-2.8,0-3.7l-9.6-9c-.4-.4-.8-.6-1.3-.6h0ZM343.7,208.4c-1.1,0-2.1.3-2.2,1.2-.3,2.2,3.5,1.4,3.5,1.4l1.4,15.6h.9c0,.1-.6-17.8-.6-17.8,0,0-1.5-.4-2.9-.4h0ZM340.7,214c-.6,0-1.1.3-1.3.7-.4.8.3,1.8,1.4,2.4h0c1.1.5,2.4.3,2.7-.4.4-.8-.3-1.8-1.4-2.4h0c-.5-.2-.9-.3-1.4-.3h0ZM327.5,216c-.7,0-1.4.2-1.8.7l-9,9.6c-.8.8-.9,1.8-.2,2.6l7.8,6.8c.7.7,1.5.9,2.5.2,3-2.6,5.1-5.5,5.1-5.5.4-.5.3-1-.2-1.6l-3.6-3.4c-.7-.6-1.3-.4-1.8.1l-3.5,3.7.4.4,4.2-3.2,3.4,3.3-4.9,4.8-7.4-7,8.8-8.1,15,14.9,2.8-2.6-15.7-15c-.4-.5-1.1-.7-1.8-.7h0ZM342.4,218.2c-.6,0-1.1.3-1.3.7-.4.8.3,1.8,1.4,2.4,1.1.5,2.4.3,2.7-.4h0c.4-.8-.3-1.8-1.4-2.4h0c-.5-.2-.9-.3-1.4-.3h0ZM268,222.2c-1.2,0-2.2,1-2.2,2.2h0v28.8c0,1.2,1,2.2,2.2,2.2s2.2-1,2.2-2.2v-28.8c0-1.2-.9-2.2-2.2-2.2h0ZM252.5,222.3c-1.2,0-2.2,1-2.2,2.2h0v22.5c0,4.6,3.8,8.4,8.4,8.4h3.9c1.2,0,2.2-.9,2.3-2.1s-.9-2.2-2.1-2.3h-4.1c-2.3,0-4-1.8-4-4v-22.5c0-1.2-.9-2.2-2.2-2.2h0ZM310,222.3c-1.2,0-2.2,1-2.1,2.2v22.5c0,4.6,3.8,8.4,8.4,8.4h3.9c1.2,0,2.2-.9,2.3-2.1s-.9-2.2-2.1-2.3h-4.1c-2.3,0-4-1.8-4-4v-22.5c0-1.2-.9-2.2-2.2-2.2h0ZM243.3,222.3c-4.6,0-8.4,3.8-8.4,8.4v5.2c-1.2.2-2,1.4-1.7,2.6.2.9.9,1.6,1.7,1.7v13c0,1.2.9,2.2,2.1,2.3s2.2-.9,2.3-2.1v-13.2h6.8c1.2,0,2.2-1,2.2-2.2s-1-2.2-2.2-2.2h-6.8v-5.2c0-2.3,1.8-4,4-4h3.9c1.2,0,2.2-.9,2.3-2.1,0-1.2-.9-2.2-2.1-2.3h-4.1ZM278.3,222.6h-.1s-1.8.2-3.5,1.3c-1.8,1.1-3.6,3.4-3.6,6.8s1.1,5.5,2.5,7.1c1.5,1.6,3.2,2.5,4.6,3.4,1.5,1,3,1.9,3.9,2.7.9.9,1.3,1.5,1.3,2.9,0,2.9-2.2,4.4-3.7,4.4-2.7,0-5.3-.2-5.3-.2-1.1,0-2.1.8-2.1,1.9s.8,2.1,1.9,2.1c0,0,2.7.2,5.6.2s7.8-3.5,7.8-8.5-1.2-4.5-2.6-5.9-3.1-2.3-4.4-3.2c-1.6-1-2.9-1.8-3.8-2.8-.9-.9-1.5-2-1.5-4.3s.8-2.8,1.7-3.4c.9-.5,1.7-.7,1.8-.7h5.4c1.1,0,2.1-.8,2.1-1.9s-.8-2.1-1.9-2.1h-5.9l-.2.2ZM294.6,230.8c-3.4,0-6.2,2.8-6.2,6.2v12.2c0,3.4,2.8,6.2,6.2,6.2h5.7c3.4,0,6.2-2.8,6.2-6.2v-12.2c0-3.4-2.8-6.2-6.2-6.2h-5.7ZM370.1,231.7c-.7,0-1.5.6-2,1.5-.5,1.1-.3,2.4.4,2.7h0c.8.4,1.8-.3,2.4-1.4.5-1.1.3-2.4-.4-2.7-.1,0-.3,0-.4-.1ZM365.9,233.4c-.7,0-1.5.6-2,1.5-.5,1.1-.3,2.4.4,2.7.8.4,1.8-.3,2.4-1.4h0c.5-1.1.3-2.4-.4-2.7-.1,0-.3,0-.4-.1ZM375.4,233.9c-1.9,0-1.2,3.5-1.2,3.5l-15.6,1.4v.9c-.1,0,17.8-.6,17.8-.6,0,0,1.4-4.8-.8-5.2h-.2,0ZM294.6,235.1h5.7c1.1,0,1.9.8,1.9,1.9v12.2c0,1.1-.8,1.9-1.9,1.9h-5.7c-1.1,0-1.9-.8-1.9-1.9v-12.2c0-1.1.8-1.9,1.9-1.9ZM334.4,237.9l-17.9.6s-1.4,4.8.8,5.2c2.2.3,1.4-3.5,1.4-3.5l15.6-1.4v-.9h.1ZM328,239.9c-.7,0-1.5.6-2,1.5-.5,1.1-.3,2.4.4,2.7.8.4,1.8-.3,2.4-1.4h0c.5-1.1.3-2.4-.4-2.7h0c-.1,0-.3,0-.4-.1ZM339.4,240.1l-15,15.7c-1,.9-1,2.8,0,3.7l9.6,9c.8.8,1.8.9,2.6.2l6.8-7.8c.7-.7.9-1.5.2-2.5-2.6-3-5.5-5.1-5.5-5.1-.5-.4-1-.3-1.6.2l-3.4,3.6c-.6.7-.4,1.3.1,1.8l3.7,3.5.4-.4-3.2-4.2,3.3-3.4,4.8,4.9-7,7.4-8.1-8.8,14.9-15-2.6-2.8h0ZM367.3,241.2c-.4,0-.8,0-1.3.4-3,2.6-5.1,5.5-5.1,5.5-.4.5-.3,1,.2,1.6l3.6,3.4c.7.6,1.3.4,1.8-.1l3.5-3.7-.4-.4-4.2,3.2-3.4-3.3,4.9-4.8,7.4,7-8.8,8.1-15-14.9-2.8,2.6,15.7,15c.9,1,2.8,1,3.7,0l9-9.6c.8-.8.9-1.8.2-2.6l-7.8-6.8c-.4-.3-.7-.6-1.2-.6h0ZM323.8,241.6c-.7,0-1.5.6-2,1.5-.5,1.1-.3,2.4.4,2.7.8.4,1.8-.3,2.4-1.4h0c.5-1.1.3-2.4-.4-2.7-.1,0-.3,0-.4-.1ZM345.5,250.8l.6,17.9s4.8,1.4,5.2-.8c.3-2.2-3.5-1.4-3.5-1.4l-1.4-15.6h-.9ZM348.9,256c-.6,0-1.1.3-1.3.7-.4.8.3,1.8,1.4,2.4h0c1.1.5,2.4.3,2.7-.4.4-.8-.3-1.8-1.4-2.4h0c-.5-.2-.9-.3-1.4-.3h0ZM350.6,260.3c-.6,0-1.1.3-1.3.7-.4.8.3,1.8,1.4,2.4h0c1.1.5,2.4.3,2.7-.4.4-.8-.3-1.8-1.4-2.4h0c-.5-.2-.9-.3-1.4-.3h0Z"/>
      <circle id="path20223-3" class="cls-15" cx="346.4" cy="238.7" r="15.9"/>
      <circle id="path20223-2" class="cls-14" cx="346.4" cy="238.7" r="15.9"/>
      <path id="path20231-08" class="cls-19" d="M338.8,227.4c-.2,0-.4,0-.6.2,0,.8.2,1.8.8,2.3l-.2-.4c-.3-.4-.7-2.4.2-1.5.5,1.1.7,2.5,1.5,3.5.6,1,1.8,1.1,2.9,1.4.9.4,1.2,1.7,2.1,1.9.7.9-.2,2-.5,2.8-.7,1.3.8,2.1,1.3,3.1,1,1.3,1.9,3.1,1.2,4.8-.4,1.2-.5,2.6-.8,3.8-.1.9-.3,2.8.6,3,.2-1,.1-2,.9-2.8.8-1.5,2.3-2.4,3.4-3.4.5-.6,1.5-2,2.6-2.7.4-.8.3-2.1,1.1-2.8.6-.7.9-2.2-.3-2.4-1.6-.6-2.9-1.9-4-3.3-1.2-.6-1.9-.8-3.1-1.2,0,0-.2.7-.4.7-.3,0,0-.9-.6-.8-.1.4-.8,1-1.2,1.1-.2-.3-.8-.9-.7-1.3,0-1-1.2-1-.8-1.9-.3-.8-1.4,1.2-1.9-.2-.3-1.2-.3-3.2-1.4-3.4-.5-.2-1.4-.6-2-.6h-.1ZM345.5,230.7c.1,0,.6-.1,1.1-.1s1.3.4,1.5.3c-.2-.8-1.9-.6-1.8-.6-.2.2-.9.4-.7.4h-.1ZM350.9,232.2h-.3c0-.1.2,0,.3,0ZM350,231.9c-.9,0-.3-.5-.8-.5s-.2.4-.9.3c.6.3.6.2,1,.4.5,0,.9,0,.7-.2h0Z" inkscape:connector-curvature="0" sodipodi:nodetypes="cccccccccccccccccccssccccccccscccccccsccc"/>
      <path id="path20231-0" class="cls-24" d="M338.8,227.4c-.2,0-.4,0-.6.2,0,.8.2,1.8.8,2.3l-.2-.4c-.3-.4-.7-2.4.2-1.5.5,1.1.7,2.5,1.5,3.5.6,1,1.8,1.1,2.9,1.4.9.4,1.2,1.7,2.1,1.9.7.9-.2,2-.5,2.8-.7,1.3.8,2.1,1.3,3.1,1,1.3,1.9,3.1,1.2,4.8-.4,1.2-.5,2.6-.8,3.8-.1.9-.3,2.8.6,3,.2-1,.1-2,.9-2.8.8-1.5,2.3-2.4,3.4-3.4.5-.6,1.5-2,2.6-2.7.4-.8.3-2.1,1.1-2.8.6-.7.9-2.2-.3-2.4-1.6-.6-2.9-1.9-4-3.3-1.2-.6-1.9-.8-3.1-1.2,0,0-.2.7-.4.7-.3,0,0-.9-.6-.8-.1.4-.8,1-1.2,1.1-.2-.3-.8-.9-.7-1.3,0-1-1.2-1-.8-1.9-.3-.8-1.4,1.2-1.9-.2-.3-1.2-.3-3.2-1.4-3.4-.5-.2-1.4-.6-2-.6h-.1ZM345.5,230.7c.1,0,.6-.1,1.1-.1s1.3.4,1.5.3c-.2-.8-1.9-.6-1.8-.6-.2.2-.9.4-.7.4h-.1ZM350.9,232.2h-.3c0-.1.2,0,.3,0ZM350,231.9c-.9,0-.3-.5-.8-.5s-.2.4-.9.3c.6.3.6.2,1,.4.5,0,.9,0,.7-.2h0Z" inkscape:connector-curvature="0" sodipodi:nodetypes="cccccccccccccccccccssccccccccscccccccsccc"/>
    </g>
    <g id="g5">
      <g id="text404" class="cls-5">
        <g class="cls-5">
          <text class="cls-1" transform="translate(28.7 574.7)"><tspan x="0" y="0" xml:space="preserve">   Francisco Ernesto Teixeira</tspan></text>
        </g>
      </g>
      <path id="path420" class="cls-28" d="M51.2,557.1h126.7"/>
      <g id="text416" class="cls-5">
        <g class="cls-5">
          <text class="cls-7" transform="translate(36.2 589.2)"><tspan x="0" y="0">Coordenador Geral FLISol-DF 2024</tspan></text>
        </g>
      </g>
      <path class="cls-12" d="M94.1,570.1"/>
    </g>
    <g id="text376" class="cls-5">
      <g class="cls-5">
        <text class="cls-2" transform="translate(42.5 481.7)"><tspan x="0" y="0">Em reconhecimento à inestimável contribuição prestada</tspan></text>
      </g>
      <g class="cls-5">
        <text class="cls-2" transform="translate(42.5 496.7)"><tspan x="0" y="0">no Festival Latino-Americano de Instalação de Software</tspan></text>
      </g>
      <g class="cls-5">
        <text class="cls-3" transform="translate(42.5 512.9) scale(1.5 1)"><tspan x="0" y="0">Livre.</tspan></text>
      </g>
    </g>
    <g id="g4">
      <g id="text20580" class="cls-5">
        <g class="cls-5">
          <text class="cls-11" transform="translate(15.2 650.1)"><tspan x="0" y="0">FLISol-DF 2024 Certificate Organizer</tspan></text>
        </g>
        <g class="cls-5">
          <text class="cls-8" transform="translate(15.2 661.9)"><tspan x="0" y="0">Author: Saullo Alves</tspan></text>
        </g>
        <g class="cls-5">
          <text class="cls-8" transform="translate(15.2 673.6)"><tspan x="0" y="0">E-mail: saullo.valakas@gmail.com</tspan></text>
        </g>
        <g class="cls-5">
          <text class="cls-8" transform="translate(15.2 685.4)"><tspan x="0" y="0">LinkedIn: https://br.linkedin.com/in/saullo-alves</tspan></text>
        </g>
        <g class="cls-5">
          <text class="cls-8" transform="translate(15.2 697.1)"><tspan x="0" y="0">License: Creative Commons</tspan></text>
        </g>
        <g class="cls-5">
          <text class="cls-8" transform="translate(15.2 708.9)"><tspan x="0" y="0">Source: SVG</tspan></text>
        </g>
        <g class="cls-5">
          <text class="cls-8" transform="translate(15.2 720.6)"><tspan x="0" y="0">Font: Nunito Sans 10pt (Google Fonts: https://fonts.google.com/specimen/Nunito+Sans)</tspan></text>
        </g>
        <g class="cls-5">
          <text class="cls-8" transform="translate(15.2 732.4)"><tspan x="0" y="0">Tool: Inkscape 1.3.2</tspan></text>
        </g>
        <g class="cls-5">
          <text class="cls-8" transform="translate(15.2 744.1)"><tspan x="0" y="0"> </tspan></text>
        </g>
        <g class="cls-5">
          <text class="cls-8" transform="translate(15.2 755.9)"><tspan x="0" y="0">Colors:</tspan></text>
        </g>
        <g class="cls-5">
          <text class="cls-8" transform="translate(15.2 767.6)"><tspan x="0" y="0">hFF8E2A - rgb 255,142,042</tspan></text>
        </g>
        <g class="cls-5">
          <text class="cls-8" transform="translate(15.2 779.3)"><tspan x="0" y="0">h0055D4 - rgb 000,085,212</tspan></text>
        </g>
        <g class="cls-5">
          <text class="cls-8" transform="translate(15.2 791.1)"><tspan x="0" y="0">hCCFF00 - rgb 204,255,000</tspan></text>
        </g>
        <g class="cls-5">
          <text class="cls-8" transform="translate(15.2 802.8)"><tspan x="0" y="0">hFE8200 - rgb (228,19,19</tspan></text>
        </g>
        <g class="cls-5">
          <text class="cls-8" transform="translate(15.2 814.6)"><tspan x="0" y="0">h4A4F52 - rgb 074,079,082</tspan></text>
        </g>
      </g>
      <rect id="rect20612" class="cls-23" x="1.2" y="759.1" width="9.9" height="9.9"/>
      <rect id="rect20614" class="cls-17" x="1.2" y="770.8" width="9.9" height="9.9"/>
      <rect id="rect20616" class="cls-19" x="1.2" y="782.6" width="9.9" height="9.9"/>
      <rect id="rect20616-5" class="cls-27" x="1.2" y="794.3" width="9.9" height="9.9"/>
      <rect id="rect20616-5-5" class="cls-12" x="1.2" y="806.1" width="9.9" height="9.9"/>
    </g>
    <g id="text328" class="cls-5">
      <g class="cls-5">
        <text class="cls-4" transform="translate(42.2 306)"><tspan x="0" y="0">CERTIFICADO DE ORGANIZADOR</tspan></text>
      </g>
    </g>
    <g id="text334" class="cls-5">
      <g class="cls-5">
        <text class="cls-6" transform="translate(40.7 365.7)"><tspan x="0" y="0">Diolina Ferreira</tspan></text>
      </g>
    </g>
    <g id="text372" class="cls-5">
      <g class="cls-5">
        <text class="cls-10" transform="translate(42.7 324.2)"><tspan x="0" y="0">Certiﬁcamos que</tspan></text>
      </g>
    </g>
    <g id="text344" class="cls-5">
      <g class="cls-5">
        <text class="cls-10" transform="translate(43.4 424.1)"><tspan x="0" y="0">Colaborou na organização do FLISoL DF 2024 (Festival Latino-Americano de</tspan></text>
      </g>
      <g class="cls-5">
        <text class="cls-10" transform="translate(43.4 439.1)"><tspan x="0" y="0">Instalação de Software Livre) na Centro Universitário Estácio - Campus</tspan></text>
      </g>
      <g class="cls-5">
        <text class="cls-10" transform="translate(43.4 454.2)"><tspan x="0" y="0">Taguatinga, realizado no dia 27/04/2024, com carga horária de 30 horas.</tspan></text>
      </g>
    </g>
    <image class="cls-5" width="1104" height="937" transform="translate(57.4 499.2) scale(0)" xlink:href="FLISol-DF 2024 Signature.png"/>
  </g>
</svg>