<?xml version="1.0" encoding="UTF-8"?>
<svg xmlns="http://www.w3.org/2000/svg" version="1.1" xmlns:inkscape="http://www.inkscape.org/namespaces/inkscape" xmlns:sodipodi="http://sodipodi.sourceforge.net/DTD/sodipodi-0.dtd" xmlns:svg="http://www.w3.org/2000/svg" xmlns:xlink="http://www.w3.org/1999/xlink" viewBox="0 0 1920 1080">
  <defs>
    <style>
      .cls-1, .cls-2, .cls-3, .cls-4, .cls-5, .cls-6, .cls-7, .cls-8, .cls-9, .cls-10 {
        isolation: isolate;
      }

      .cls-1, .cls-4 {
        font-size: 29.9px;
      }

      .cls-1, .cls-4, .cls-9, .cls-10 {
        font-family: NunitoSans10pt-Light, 'Nunito Sans 10pt';
        font-weight: 300;
      }

      .cls-1, .cls-6, .cls-11, .cls-12 {
        fill: #5d8ab2;
      }

      .cls-13 {
        fill: url(#Gradiente_sem_nome_2);
      }

      .cls-13, .cls-14, .cls-15, .cls-16, .cls-17, .cls-18, .cls-19, .cls-20, .cls-21, .cls-22, .cls-23, .cls-24, .cls-11, .cls-25, .cls-12 {
        stroke-width: 0px;
      }

      .cls-2 {
        font-size: 29.9px;
      }

      .cls-2, .cls-16, .cls-4, .cls-9, .cls-23, .cls-10 {
        fill: #4a4f52;
      }

      .cls-2, .cls-6 {
        font-family: NunitoSans10pt-Bold, 'Nunito Sans 10pt';
      }

      .cls-2, .cls-6, .cls-7 {
        font-weight: 700;
      }

      .cls-14 {
        fill: #0055d4;
      }

      .cls-15, .cls-21 {
        fill: #ff8e2a;
      }

      .cls-15, .cls-23, .cls-11 {
        fill-rule: evenodd;
      }

      .cls-26, .cls-19, .cls-5, .cls-27, .cls-28, .cls-29 {
        fill: none;
      }

      .cls-26, .cls-5 {
        stroke: #b8bbc2;
        stroke-width: 1px;
      }

      .cls-26, .cls-5, .cls-27, .cls-28 {
        stroke-miterlimit: 54.5;
      }

      .cls-30 {
        clip-path: url(#clippath-2);
      }

      .cls-17 {
        fill: #0047b6;
      }

      .cls-31 {
        clip-path: url(#clippath-6);
      }

      .cls-18 {
        fill: #cf0;
      }

      .cls-32 {
        clip-path: url(#clippath-7);
      }

      .cls-33 {
        clip-path: url(#clippath-1);
      }

      .cls-34 {
        clip-path: url(#clippath-4);
      }

      .cls-5 {
        opacity: .6;
      }

      .cls-6 {
        font-size: 93.7px;
      }

      .cls-7 {
        font-family: Arial-BoldMT, Arial;
      }

      .cls-7, .cls-8 {
        fill: #000;
        font-size: 24.1px;
      }

      .cls-35 {
        clip-path: url(#clippath);
      }

      .cls-36 {
        clip-path: url(#clippath-3);
      }

      .cls-27 {
        stroke-width: 2.1px;
      }

      .cls-27, .cls-28, .cls-29 {
        stroke: #5d8ab2;
      }

      .cls-8 {
        font-family: ArialMT, Arial;
      }

      .cls-37 {
        clip-path: url(#clippath-8);
      }

      .cls-20 {
        fill: url(#Gradiente_sem_nome_4);
      }

      .cls-38 {
        clip-path: url(#clippath-5);
      }

      .cls-28 {
        stroke-width: 1.9px;
      }

      .cls-22 {
        fill: url(#Gradiente_sem_nome_3);
      }

      .cls-9 {
        font-size: 24.3px;
      }

      .cls-24 {
        fill: #f0f0f0;
      }

      .cls-10 {
        font-size: 52.2px;
      }

      .cls-29 {
        stroke-miterlimit: 10;
      }

      .cls-25 {
        fill: #dedfe8;
      }
    </style>
    <clipPath id="clippath">
      <rect class="cls-29" x="148.1" y="-41.8" width="1623.8" height="1163.6"/>
    </clipPath>
    <clipPath id="clippath-1">
      <rect class="cls-29" x="148.1" y="-41.8" width="1623.8" height="1163.6"/>
    </clipPath>
    <clipPath id="clippath-2">
      <rect class="cls-29" x="148.1" y="-41.8" width="1623.8" height="1163.6"/>
    </clipPath>
    <clipPath id="clippath-3">
      <rect class="cls-29" x="148.1" y="-41.8" width="1623.8" height="1163.6"/>
    </clipPath>
    <clipPath id="clippath-4">
      <rect class="cls-29" x="148.1" y="-41.8" width="1623.8" height="1163.6"/>
    </clipPath>
    <clipPath id="clippath-5">
      <rect class="cls-19" x="148.1" y="-41.8" width="1623.8" height="1163.6"/>
    </clipPath>
    <clipPath id="clippath-6">
      <rect class="cls-19" x="148.1" y="-41.8" width="1623.8" height="1163.6"/>
    </clipPath>
    <clipPath id="clippath-7">
      <rect class="cls-19" x="148.1" y="-41.8" width="1623.8" height="1163.6"/>
    </clipPath>
    <clipPath id="clippath-8">
      <rect class="cls-19" x="148.1" y="-41.8" width="1623.8" height="1163.6"/>
    </clipPath>
    <linearGradient id="Gradiente_sem_nome_2" data-name="Gradiente sem nome 2" x1="436.6" y1="721" x2="199.4" y2="613.5" gradientTransform="translate(606 759.7) scale(.9 -.9)" gradientUnits="userSpaceOnUse">
      <stop offset="0" stop-color="#fea842"/>
      <stop offset="1" stop-color="#fea842" stop-opacity="0"/>
    </linearGradient>
    <linearGradient id="Gradiente_sem_nome_3" data-name="Gradiente sem nome 3" x1="569.4" y1="758.9" x2="478.5" y2="667.5" gradientTransform="translate(375.4 -215.7) rotate(80.8) scale(.9 -.9)" gradientUnits="userSpaceOnUse">
      <stop offset="0" stop-color="#3aaaf3"/>
      <stop offset="1" stop-color="#3aaaf3" stop-opacity="0"/>
    </linearGradient>
    <linearGradient id="Gradiente_sem_nome_4" data-name="Gradiente sem nome 4" x1="500" y1="676.6" x2="521.3" y2="718.7" gradientTransform="translate(606 759.7) scale(.9 -.9)" gradientUnits="userSpaceOnUse">
      <stop offset="0" stop-color="#9fc700"/>
      <stop offset="1" stop-color="#9fc700" stop-opacity="0"/>
    </linearGradient>
  </defs>
  <g id="svg642" sodipodi:docname="FLISol-DF 2024 Certificate Collaborator.svg">
    <sodipodi:namedview id="namedview644" bordercolor="#000000" borderopacity="0.25" inkscape:current-layer="g4" inkscape:cx="160.50181" inkscape:cy="232.51266" inkscape:deskcolor="#d1d1d1" inkscape:pagecheckerboard="0" inkscape:pageopacity="0.0" inkscape:showpageshadow="2" inkscape:window-height="1017" inkscape:window-maximized="1" inkscape:window-width="2560" inkscape:window-x="-8" inkscape:window-y="-8" inkscape:zoom="4.1868688" pagecolor="#ffffff" showgrid="true" showguides="false">
      <inkscape:grid id="grid3360" originx="0" originy="0" spacingx="1" spacingy="1" type="xygrid" units="px" visible="true"/>
    </sodipodi:namedview>
    <rect id="rect324" class="cls-24" x="148.1" y="-41.8" width="1623.8" height="1163.6"/>
    <g id="text328" class="cls-3">
      <text class="cls-10" transform="translate(282.8 309.1)"><tspan x="0" y="0">CERTIFICADO DE COLABORADOR</tspan></text>
    </g>
    <g id="text334" class="cls-3">
      <text class="cls-6" transform="translate(278.9 462.3)"><tspan x="0" y="0">Diolina Ferreira</tspan></text>
    </g>
    <g id="text372" class="cls-3">
      <text class="cls-4" transform="translate(284.2 355.8)"><tspan x="0" y="0">Certiﬁcamos que</tspan></text>
    </g>
    <path id="path422" class="cls-16" d="M1204.4,1121.8h358.8l-179.4-179.4-179.4,179.4Z"/>
    <g id="g23846">
      <path id="path424" class="cls-26" d="M866.8-207L505.1,154.7,143.3-207"/>
      <path id="path426" class="cls-26" d="M847.7-207L505.1,135.6,162.4-207"/>
      <path id="path428" class="cls-26" d="M828.6-207L505.1,116.6,181.5-207"/>
      <path id="path430" class="cls-26" d="M809.6-207L505.1,97.5,200.6-207"/>
      <path id="path432" class="cls-26" d="M790.5-207L505.1,78.4,219.7-207"/>
      <path id="path434" class="cls-26" d="M771.4-207L505.1,59.3,238.7-207"/>
      <path id="path436" class="cls-26" d="M752.3-207L505.1,40.2l-247.2-247.2"/>
    </g>
    <path id="path438" class="cls-25" d="M1462.4-41.8l309.5,309.5V-41.8h-309.5Z"/>
    <path id="path440" class="cls-11" d="M1386.7,307.8l125.5,125.5-125.5,125.5-125.5-125.5,125.5-125.5Z"/>
    <path id="path442" class="cls-23" d="M1205,292.8l58.4,58.4-58.4,58.4-58.4-58.4,58.4-58.4Z"/>
    <g id="g24142">
      <path id="path447" class="cls-16" d="M1308.2,436.2c0,1.6-1.3,2.9-2.9,2.9s-2.9-1.3-2.9-2.9,1.3-2.9,2.9-2.9,2.9,1.3,2.9,2.9"/>
      <path id="path449" class="cls-16" d="M1335.3,436.2c0,1.6-1.3,2.9-2.9,2.9s-2.9-1.3-2.9-2.9,1.3-2.9,2.9-2.9,2.9,1.3,2.9,2.9"/>
      <path id="path451" class="cls-16" d="M1362.4,436.2c0,1.6-1.3,2.9-2.9,2.9s-2.9-1.3-2.9-2.9,1.3-2.9,2.9-2.9,2.9,1.3,2.9,2.9"/>
      <path id="path453" class="cls-16" d="M1389.5,436.2c0,1.6-1.3,2.9-2.9,2.9s-2.9-1.3-2.9-2.9,1.3-2.9,2.9-2.9,2.9,1.3,2.9,2.9"/>
      <path id="path455" class="cls-16" d="M1308.2,463.3c0,1.6-1.3,2.9-2.9,2.9s-2.9-1.3-2.9-2.9,1.3-2.9,2.9-2.9,2.9,1.3,2.9,2.9"/>
      <path id="path457" class="cls-16" d="M1335.3,463.3c0,1.6-1.3,2.9-2.9,2.9s-2.9-1.3-2.9-2.9,1.3-2.9,2.9-2.9,2.9,1.3,2.9,2.9"/>
      <path id="path459" class="cls-16" d="M1362.4,463.3c0,1.6-1.3,2.9-2.9,2.9s-2.9-1.3-2.9-2.9,1.3-2.9,2.9-2.9,2.9,1.3,2.9,2.9"/>
      <path id="path461" class="cls-16" d="M1389.5,463.3c0,1.6-1.3,2.9-2.9,2.9s-2.9-1.3-2.9-2.9,1.3-2.9,2.9-2.9,2.9,1.3,2.9,2.9"/>
      <path id="path463" class="cls-16" d="M1308.2,490.4c0,1.6-1.3,2.9-2.9,2.9s-2.9-1.3-2.9-2.9,1.3-2.9,2.9-2.9,2.9,1.3,2.9,2.9"/>
      <path id="path465" class="cls-16" d="M1335.3,490.4c0,1.6-1.3,2.9-2.9,2.9s-2.9-1.3-2.9-2.9,1.3-2.9,2.9-2.9,2.9,1.3,2.9,2.9"/>
      <path id="path467" class="cls-16" d="M1362.4,490.4c0,1.6-1.3,2.9-2.9,2.9s-2.9-1.3-2.9-2.9,1.3-2.9,2.9-2.9,2.9,1.3,2.9,2.9"/>
      <path id="path469" class="cls-16" d="M1389.5,490.4c0,1.6-1.3,2.9-2.9,2.9s-2.9-1.3-2.9-2.9,1.3-2.9,2.9-2.9,2.9,1.3,2.9,2.9"/>
      <path id="path471" class="cls-16" d="M1308.2,517.5c0,1.6-1.3,2.9-2.9,2.9s-2.9-1.3-2.9-2.9,1.3-2.9,2.9-2.9,2.9,1.3,2.9,2.9"/>
      <path id="path473" class="cls-16" d="M1335.3,517.5c0,1.6-1.3,2.9-2.9,2.9s-2.9-1.3-2.9-2.9,1.3-2.9,2.9-2.9,2.9,1.3,2.9,2.9"/>
      <path id="path475" class="cls-16" d="M1362.4,517.5c0,1.6-1.3,2.9-2.9,2.9s-2.9-1.3-2.9-2.9,1.3-2.9,2.9-2.9,2.9,1.3,2.9,2.9"/>
      <path id="path477" class="cls-16" d="M1389.5,517.5c0,1.6-1.3,2.9-2.9,2.9s-2.9-1.3-2.9-2.9,1.3-2.9,2.9-2.9,2.9,1.3,2.9,2.9"/>
    </g>
    <g id="g24740">
      <g>
        <g class="cls-35">
          <path id="path479" class="cls-27" d="M1826.9,534.7l-297,297-368.4,368.4" sodipodi:nodetypes="ccc"/>
        </g>
        <rect class="cls-29" x="148.1" y="-41.8" width="1623.8" height="1163.6"/>
      </g>
      <g>
        <g class="cls-33">
          <path id="path481" class="cls-27" d="M1826.9,570.8l-629.3,629.3"/>
        </g>
        <rect class="cls-29" x="148.1" y="-41.8" width="1623.8" height="1163.6"/>
      </g>
      <g>
        <g class="cls-30">
          <path id="path483" class="cls-27" d="M1826.9,606.8l-593.3,593.3"/>
        </g>
        <rect class="cls-29" x="148.1" y="-41.8" width="1623.8" height="1163.6"/>
      </g>
      <g>
        <g class="cls-36">
          <path id="path485" class="cls-27" d="M1826.9,642.9l-557.2,557.2"/>
        </g>
        <rect class="cls-29" x="148.1" y="-41.8" width="1623.8" height="1163.6"/>
      </g>
      <g>
        <g class="cls-34">
          <path id="path487" class="cls-27" d="M1826.9,679l-521.1,521.1"/>
        </g>
        <rect class="cls-29" x="148.1" y="-41.8" width="1623.8" height="1163.6"/>
      </g>
    </g>
    <g id="g24149">
      <path id="path495" class="cls-5" d="M1826.9,393.5l-487.4-487.4"/>
      <path id="path502" class="cls-5" d="M1826.9,415.8l-509.6-509.6"/>
      <path id="path509" class="cls-5" d="M1826.9,438L1295.1-93.9"/>
      <path id="path516" class="cls-5" d="M1826.9,460.3L1272.8-93.9"/>
      <path id="path523" class="cls-5" d="M1826.9,482.5L1250.5-93.9"/>
    </g>
    <path id="path537" class="cls-12" d="M1447.9-41.8l-179.1,179.1,503.1,503.1v-163.3l-339.8-339.8,179.1-179.1h-163.3Z"/>
    <g class="cls-38">
      <path id="path542" class="cls-16" d="M1857.1,1107.2v-163.3l-316.6-316.6,316.6-316.6v-163.3l-479.9,479.9,479.9,479.9Z"/>
    </g>
    <g class="cls-31">
      <path id="path544" class="cls-12" d="M1052.1,1274.2l331.8-331.8,331.8,331.8h163.3l-495.1-495.1-495.1,495.1h163.3Z"/>
    </g>
    <g class="cls-32">
      <path id="path546" class="cls-16" d="M435.2-127L62.9,245.3v163.3L598.5-127h-163.3Z"/>
    </g>
    <g id="g23837">
      <path id="path548" class="cls-12" d="M435.9,66.1c-1.1-1.1-1.1-2.9,0-4.1s2.9-1.1,4.1,0c1.1,1.1,1.1,2.9,0,4.1-1.1,1.1-2.9,1.1-4.1,0"/>
      <path id="path550" class="cls-12" d="M416.7,85.3c-1.1-1.1-1.1-2.9,0-4.1,1.1-1.1,2.9-1.1,4.1,0,1.1,1.1,1.1,2.9,0,4.1-1.1,1.1-2.9,1.1-4.1,0"/>
      <path id="path552" class="cls-12" d="M397.5,104.5c-1.1-1.1-1.1-2.9,0-4.1,1.1-1.1,2.9-1.1,4.1,0,1.1,1.1,1.1,2.9,0,4.1-1.1,1.1-2.9,1.1-4.1,0"/>
      <path id="path554" class="cls-12" d="M378.4,123.7c-1.1-1.1-1.1-2.9,0-4.1,1.1-1.1,2.9-1.1,4.1,0,1.1,1.1,1.1,2.9,0,4.1-1.1,1.1-2.9,1.1-4.1,0"/>
      <path id="path556" class="cls-12" d="M416.7,47c-1.1-1.1-1.1-2.9,0-4.1,1.1-1.1,2.9-1.1,4.1,0,1.1,1.1,1.1,2.9,0,4.1-1.1,1.1-2.9,1.1-4.1,0"/>
      <path id="path558" class="cls-12" d="M397.5,66.1c-1.1-1.1-1.1-2.9,0-4.1,1.1-1.1,2.9-1.1,4.1,0,1.1,1.1,1.1,2.9,0,4.1s-2.9,1.1-4.1,0"/>
      <path id="path560" class="cls-12" d="M378.4,85.3c-1.1-1.1-1.1-2.9,0-4.1,1.1-1.1,2.9-1.1,4.1,0,1.1,1.1,1.1,2.9,0,4.1-1.1,1.1-2.9,1.1-4.1,0"/>
      <path id="path562" class="cls-12" d="M359.2,104.5c-1.1-1.1-1.1-2.9,0-4.1,1.1-1.1,2.9-1.1,4.1,0,1.1,1.1,1.1,2.9,0,4.1-1.1,1.1-2.9,1.1-4.1,0"/>
      <path id="path564" class="cls-12" d="M397.5,27.8c-1.1-1.1-1.1-2.9,0-4.1,1.1-1.1,2.9-1.1,4.1,0,1.1,1.1,1.1,2.9,0,4.1s-2.9,1.1-4.1,0"/>
      <path id="path566" class="cls-12" d="M378.4,47c-1.1-1.1-1.1-2.9,0-4.1,1.1-1.1,2.9-1.1,4.1,0,1.1,1.1,1.1,2.9,0,4.1-1.1,1.1-2.9,1.1-4.1,0"/>
      <path id="path568" class="cls-12" d="M359.2,66.1c-1.1-1.1-1.1-2.9,0-4.1s2.9-1.1,4.1,0c1.1,1.1,1.1,2.9,0,4.1-1.1,1.1-2.9,1.1-4.1,0"/>
      <path id="path570" class="cls-12" d="M340,85.3c-1.1-1.1-1.1-2.9,0-4.1,1.1-1.1,2.9-1.1,4.1,0,1.1,1.1,1.1,2.9,0,4.1-1.1,1.1-2.9,1.1-4.1,0"/>
      <path id="path572" class="cls-12" d="M378.4,8.6c-1.1-1.1-1.1-2.9,0-4.1s2.9-1.1,4.1,0c1.1,1.1,1.1,2.9,0,4.1-1.1,1.1-2.9,1.1-4.1,0"/>
      <path id="path574" class="cls-12" d="M359.2,27.8c-1.1-1.1-1.1-2.9,0-4.1,1.1-1.1,2.9-1.1,4.1,0,1.1,1.1,1.1,2.9,0,4.1-1.1,1.1-2.9,1.1-4.1,0"/>
      <path id="path576" class="cls-12" d="M340,47c-1.1-1.1-1.1-2.9,0-4.1,1.1-1.1,2.9-1.1,4.1,0,1.1,1.1,1.1,2.9,0,4.1s-2.9,1.1-4.1,0"/>
      <path id="path578" class="cls-12" d="M320.9,66.1c-1.1-1.1-1.1-2.9,0-4.1,1.1-1.1,2.9-1.1,4.1,0,1.1,1.1,1.1,2.9,0,4.1-1.1,1.1-2.9,1.1-4.1,0"/>
    </g>
    <g class="cls-37">
      <path id="path580" class="cls-11" d="M159.7,38.9l96.8,96.8-96.8,96.8-96.8-96.8,96.8-96.8Z"/>
    </g>
    <g id="g24452">
      <path id="path582" class="cls-16" d="M1043.9,969.5c0,1.6-1.3,2.9-2.9,2.9s-2.9-1.3-2.9-2.9,1.3-2.9,2.9-2.9,2.9,1.3,2.9,2.9"/>
      <path id="path584" class="cls-16" d="M1071,969.5c0,1.6-1.3,2.9-2.9,2.9s-2.9-1.3-2.9-2.9,1.3-2.9,2.9-2.9,2.9,1.3,2.9,2.9"/>
      <path id="path586" class="cls-16" d="M1098.1,969.5c0,1.6-1.3,2.9-2.9,2.9s-2.9-1.3-2.9-2.9,1.3-2.9,2.9-2.9,2.9,1.3,2.9,2.9"/>
      <path id="path588" class="cls-16" d="M1125.2,969.5c0,1.6-1.3,2.9-2.9,2.9s-2.9-1.3-2.9-2.9,1.3-2.9,2.9-2.9,2.9,1.3,2.9,2.9"/>
      <path id="path590" class="cls-16" d="M1152.3,969.5c0,1.6-1.3,2.9-2.9,2.9s-2.9-1.3-2.9-2.9,1.3-2.9,2.9-2.9,2.9,1.3,2.9,2.9"/>
      <path id="path592" class="cls-16" d="M1179.4,969.5c0,1.6-1.3,2.9-2.9,2.9s-2.9-1.3-2.9-2.9,1.3-2.9,2.9-2.9,2.9,1.3,2.9,2.9"/>
      <path id="path594" class="cls-16" d="M1206.6,969.5c0,1.6-1.3,2.9-2.9,2.9s-2.9-1.3-2.9-2.9,1.3-2.9,2.9-2.9,2.9,1.3,2.9,2.9"/>
      <path id="path596" class="cls-16" d="M1043.9,996.6c0,1.6-1.3,2.9-2.9,2.9s-2.9-1.3-2.9-2.9,1.3-2.9,2.9-2.9,2.9,1.3,2.9,2.9"/>
      <path id="path598" class="cls-16" d="M1071,996.6c0,1.6-1.3,2.9-2.9,2.9s-2.9-1.3-2.9-2.9,1.3-2.9,2.9-2.9,2.9,1.3,2.9,2.9"/>
      <path id="path600" class="cls-16" d="M1098.1,996.6c0,1.6-1.3,2.9-2.9,2.9s-2.9-1.3-2.9-2.9,1.3-2.9,2.9-2.9,2.9,1.3,2.9,2.9"/>
      <path id="path602" class="cls-16" d="M1125.2,996.6c0,1.6-1.3,2.9-2.9,2.9s-2.9-1.3-2.9-2.9,1.3-2.9,2.9-2.9,2.9,1.3,2.9,2.9"/>
      <path id="path604" class="cls-16" d="M1152.3,996.6c0,1.6-1.3,2.9-2.9,2.9s-2.9-1.3-2.9-2.9,1.3-2.9,2.9-2.9,2.9,1.3,2.9,2.9"/>
      <path id="path606" class="cls-16" d="M1179.4,996.6c0,1.6-1.3,2.9-2.9,2.9s-2.9-1.3-2.9-2.9,1.3-2.9,2.9-2.9,2.9,1.3,2.9,2.9"/>
      <path id="path608" class="cls-16" d="M1206.6,996.6c0,1.6-1.3,2.9-2.9,2.9s-2.9-1.3-2.9-2.9,1.3-2.9,2.9-2.9,2.9,1.3,2.9,2.9"/>
      <path id="path610" class="cls-16" d="M1043.9,1023.8c0,1.6-1.3,2.9-2.9,2.9s-2.9-1.3-2.9-2.9,1.3-2.9,2.9-2.9,2.9,1.3,2.9,2.9"/>
      <path id="path612" class="cls-16" d="M1071,1023.8c0,1.6-1.3,2.9-2.9,2.9s-2.9-1.3-2.9-2.9,1.3-2.9,2.9-2.9,2.9,1.3,2.9,2.9"/>
      <path id="path614" class="cls-16" d="M1098.1,1023.8c0,1.6-1.3,2.9-2.9,2.9s-2.9-1.3-2.9-2.9,1.3-2.9,2.9-2.9,2.9,1.3,2.9,2.9"/>
      <path id="path616" class="cls-16" d="M1125.2,1023.8c0,1.6-1.3,2.9-2.9,2.9s-2.9-1.3-2.9-2.9,1.3-2.9,2.9-2.9,2.9,1.3,2.9,2.9"/>
      <path id="path618" class="cls-16" d="M1152.3,1023.8c0,1.6-1.3,2.9-2.9,2.9s-2.9-1.3-2.9-2.9,1.3-2.9,2.9-2.9,2.9,1.3,2.9,2.9"/>
      <path id="path620" class="cls-16" d="M1179.4,1023.8c0,1.6-1.3,2.9-2.9,2.9s-2.9-1.3-2.9-2.9,1.3-2.9,2.9-2.9,2.9,1.3,2.9,2.9"/>
      <path id="path622" class="cls-16" d="M1206.6,1023.8c0,1.6-1.3,2.9-2.9,2.9s-2.9-1.3-2.9-2.9,1.3-2.9,2.9-2.9,2.9,1.3,2.9,2.9"/>
    </g>
    <g id="g5">
      <g id="text404" class="cls-3">
        <text class="cls-2" transform="translate(248.1 998.6)"><tspan x="0" y="0" xml:space="preserve">   Francisco Ernesto Teixeira</tspan></text>
      </g>
      <path id="path420" class="cls-28" d="M303.4,953.6h325.2"/>
      <g id="text416" class="cls-3">
        <text class="cls-9" transform="translate(267.4 1035.8)"><tspan x="0" y="0">Coordenador Geral FLISol-DF 2024</tspan></text>
      </g>
    </g>
    <g id="text344" class="cls-3">
      <text class="cls-4" transform="translate(286.1 612.1)"><tspan x="0" y="0">Colaborou na organização do FLISoL DF 2024 (Festival Latino-Americano de</tspan></text>
      <text class="cls-4" transform="translate(286.1 650.7)"><tspan x="0" y="0">Instalação de Software Livre) na Centro Universitário Estácio - Campus</tspan></text>
      <text class="cls-4" transform="translate(286.1 689.3)"><tspan x="0" y="0">Taguatinga, realizado no dia 27/04/2024, com carga horária de 20 horas.</tspan></text>
    </g>
    <g id="text376" class="cls-3">
      <text class="cls-1" transform="translate(283.8 760)"><tspan x="0" y="0">Em reconhecimento à inestimável contribuição prestada</tspan></text>
      <text class="cls-1" transform="translate(283.8 798.6)"><tspan x="0" y="0">no Festival Latino-Americano de Instalação de Software</tspan></text>
      <text class="cls-1" transform="translate(283.8 837.2)"><tspan x="0" y="0">Livre.</tspan></text>
    </g>
    <g id="g4">
      <g id="text20580" class="cls-3">
        <text class="cls-7" transform="translate(213.6 1192.3)"><tspan x="0" y="0">FLISol-DF 2024 Certificate Collaborator</tspan></text>
        <text class="cls-8" transform="translate(213.6 1222.5)"><tspan x="0" y="0">Author: Saullo Alves</tspan></text>
        <text class="cls-8" transform="translate(213.6 1252.6)"><tspan x="0" y="0">E-mail: saullo.valakas@gmail.com</tspan></text>
        <text class="cls-8" transform="translate(213.6 1282.8)"><tspan x="0" y="0">LinkedIn: https://br.linkedin.com/in/saullo-alves</tspan></text>
        <text class="cls-8" transform="translate(213.6 1312.9)"><tspan x="0" y="0">License: Creative Commons</tspan></text>
        <text class="cls-8" transform="translate(213.6 1343.1)"><tspan x="0" y="0">Source: SVG</tspan></text>
        <text class="cls-8" transform="translate(213.6 1373.2)"><tspan x="0" y="0">Font: Nunito Sans 10pt (Google Fonts: https://fonts.google.com/specimen/Nunito+Sans)</tspan></text>
        <text class="cls-8" transform="translate(213.6 1403.4)"><tspan x="0" y="0">Tool: Inkscape 1.3.2</tspan></text>
        <text class="cls-8" transform="translate(213.6 1433.5)"><tspan x="0" y="0"> </tspan></text>
        <text class="cls-8" transform="translate(213.6 1463.7)"><tspan x="0" y="0">Colors:</tspan></text>
        <text class="cls-8" transform="translate(213.6 1493.8)"><tspan x="0" y="0">hFF8E2A - rgb 255,142,042</tspan></text>
        <text class="cls-8" transform="translate(213.6 1524)"><tspan x="0" y="0">h0055D4 - rgb 000,085,212</tspan></text>
        <text class="cls-8" transform="translate(213.6 1554.1)"><tspan x="0" y="0">hCCFF00 - rgb 204,255,000</tspan></text>
        <text class="cls-8" transform="translate(213.6 1584.3)"><tspan x="0" y="0">5D8AB2 - rgb 93,138,178</tspan></text>
        <text class="cls-8" transform="translate(213.6 1614.5)"><tspan x="0" y="0">h4A4F52 - rgb 074,079,082</tspan></text>
      </g>
      <rect id="rect20612" class="cls-21" x="177.6" y="1472" width="25.4" height="25.4"/>
      <rect id="rect20614" class="cls-17" x="177.6" y="1502.1" width="25.4" height="25.4"/>
      <rect id="rect20616" class="cls-18" x="177.6" y="1532.3" width="25.4" height="25.4"/>
      <rect id="rect20616-5" class="cls-12" x="177.6" y="1562.4" width="25.4" height="25.4"/>
      <rect id="rect20616-5-5" class="cls-16" x="177.6" y="1592.6" width="25.4" height="25.4"/>
    </g>
    <g id="g2">
      <path id="path20109-7" class="cls-21" d="M1092.3,58.5c-1.2-.1-2.4.3-3.4,1.2l-17.5,20.1c-1.8,1.9-2.2,3.9-.4,6.3,6.7,7.6,14,13.1,14,13.1,1.3.9,2.7.7,4-.4l8.8-9.2c1.5-1.8,1.1-3.2-.3-4.6l-9.5-9.1-.9.9,8.1,10.7-8.4,8.8-12.3-12.6,17.9-18.9,20.9,22.6-38.3,38.5,6.7,7.1,38.6-40.4c2.4-2.2,2.6-7.3,0-9.5l-24.7-23.1c-1-1-2.2-1.6-3.3-1.7ZM1056.9,58.5c-2.8,0-5.4.7-5.8,3.2-.8,5.6,8.9,3.6,8.9,3.6l3.6,40.1,2.4.3-1.6-46s-3.9-1.1-7.5-1.1ZM1049.2,72.7c-1.6,0-2.9.8-3.4,1.9-.9,2,.7,4.7,3.6,6.1,0,0,0,0,0,0,2.9,1.4,6,.9,7-1.1.9-2-.7-4.7-3.6-6.1,0,0,0,0,0,0-1.2-.5-2.4-.8-3.6-.8ZM1015.2,78.1c-1.8,0-3.6.6-4.7,1.8l-23.1,24.7c-1.9,2-2.3,4.7-.5,6.8l20.1,17.5c1.9,1.8,3.9,2.2,6.3.4,7.6-6.7,13.1-14,13.1-14,.9-1.3.7-2.7-.4-4l-9.2-8.8c-1.8-1.5-3.2-1.1-4.6.3l-9.1,9.5.9.9,10.7-8.1,8.8,8.4-12.6,12.3-18.9-17.9,22.6-20.9,38.5,38.3,7.1-6.7-40.4-38.6c-1.1-1.2-2.9-1.9-4.7-1.9ZM1053.4,83.6c-1.6,0-2.9.8-3.4,1.9-.9,2,.7,4.7,3.6,6.1,2.9,1.4,6,.9,7-1.1,0,0,0,0,0,0,.9-2-.7-4.7-3.6-6.1,0,0,0,0,0,0-1.2-.5-2.4-.8-3.6-.8ZM1124.5,118.3c-1.9-.1-4,1.5-5.1,3.9-1.4,2.9-.9,6,1.1,7,0,0,0,0,0,0,2,.9,4.7-.7,6.1-3.6,1.4-2.9.9-6-1.1-7-.3-.1-.7-.2-1-.3ZM1113.7,122.6c-1.9-.1-3.9,1.5-5.1,3.9-1.4,2.9-.9,6,1.1,7,2,.9,4.7-.7,6.1-3.6,0,0,0,0,0,0,1.4-2.9.9-6-1.1-7-.3-.1-.7-.2-1-.3ZM1138,124c-5-.2-3.1,8.9-3.1,8.9l-40.1,3.6-.3,2.4,46-1.6s3.6-12.4-2-13.3c-.2,0-.3,0-.5,0h0ZM1032.8,134.2l-46,1.6s-3.6,12.4,2,13.3c5.6.8,3.6-8.9,3.6-8.9l40.1-3.6.3-2.4ZM1016.6,139.4c-1.9-.1-3.9,1.5-5.1,3.9-1.4,2.9-.9,6,1.1,7,2,.9,4.7-.7,6.1-3.6h0c1.4-2.9.9-6-1.1-7,0,0,0,0,0,0-.3-.1-.7-.2-1-.3ZM1045.7,139.9l-38.6,40.4c-2.4,2.2-2.6,7.3,0,9.5l24.7,23.1c2,1.9,4.7,2.3,6.8.5l17.5-20.1c1.8-1.9,2.2-3.9.4-6.3-6.7-7.6-14-13.1-14-13.1-1.3-.9-2.7-.7-4,.4l-8.8,9.2c-1.5,1.8-1.1,3.2.3,4.6l9.5,9.1.9-.9-8.1-10.7,8.4-8.8,12.3,12.6-17.9,18.9-20.9-22.6,38.3-38.5-6.7-7.1ZM1117.4,142.6c-1-.1-2.2.2-3.3,1.1-7.6,6.7-13.1,14-13.1,14-.9,1.3-.7,2.7.4,4l9.2,8.8c1.8,1.5,3.2,1.1,4.6-.3l9.1-9.5-.9-.9-10.7,8.1-8.8-8.4,12.6-12.3,18.9,17.9-22.6,20.9-38.5-38.3-7.1,6.7,40.4,38.6c2.2,2.4,7.3,2.6,9.5,0l23.1-24.7c1.9-2,2.3-4.7.5-6.8l-20.1-17.5c-.9-.9-1.9-1.4-3-1.5ZM1005.7,143.6c-1.9-.1-4,1.5-5.1,3.9-1.4,2.9-.9,6,1.1,7,2,.9,4.7-.7,6.1-3.6,0,0,0,0,0,0,1.4-2.9.9-6-1.1-7-.3-.1-.7-.2-1-.3ZM1061.3,167.4l1.6,46s12.4,3.6,13.3-2c.8-5.6-8.9-3.6-8.9-3.6l-3.6-40.1-2.4-.3ZM1070.2,180.7c-1.6,0-2.9.8-3.4,1.9-.9,2,.7,4.7,3.6,6.1h0c2.9,1.4,6,.9,7-1.1.9-2-.7-4.7-3.6-6.1,0,0,0,0,0,0-1.2-.5-2.4-.8-3.6-.8ZM1074.4,191.6c-1.6,0-2.9.8-3.4,1.9-.9,2,.7,4.7,3.6,6.1,0,0,0,0,0,0,2.9,1.4,6,.9,7-1.1.9-2-.7-4.7-3.6-6.1h0c-1.2-.5-2.4-.8-3.6-.8Z"/>
      <path id="path20219-1" class="cls-15" d="M862.3,93.8c-3.1,0-5.6,2.6-5.5,5.7,0,0,0,0,0,0v74c0,3.1,2.5,5.6,5.6,5.6,3.1,0,5.6-2.5,5.6-5.6v-74c0-3.1-2.4-5.6-5.5-5.7,0,0-.1,0-.2,0ZM822.6,94.1c-3.1,0-5.6,2.6-5.5,5.7,0,0,0,0,0,0v57.8c0,11.8,9.7,21.6,21.6,21.6h10c3.1.1,5.7-2.3,5.8-5.4.1-3.1-2.3-5.7-5.4-5.8-.2,0-.3,0-.5,0h-10c-5.8,0-10.4-4.5-10.4-10.4v-57.8c0-3.1-2.4-5.6-5.5-5.7,0,0,0,0-.1,0h0ZM970.2,94.1c-3.1,0-5.6,2.6-5.5,5.7v57.8c0,11.8,9.7,21.6,21.5,21.6h10c3.1.1,5.7-2.3,5.8-5.4.1-3.1-2.3-5.7-5.4-5.8-.2,0-.3,0-.5,0h-10c-5.8,0-10.3-4.5-10.3-10.4v-57.8c0-3.1-2.4-5.6-5.5-5.7,0,0-.1,0-.2,0h0ZM799,94.2c-11.8,0-21.6,9.7-21.6,21.5v13.4c-3,.6-5,3.5-4.4,6.6.4,2.2,2.2,4,4.4,4.4v33.4c-.1,3.1,2.3,5.7,5.4,5.8,3.1.1,5.7-2.3,5.8-5.4,0-.2,0-.3,0-.5v-33.3h17.6c3.1,0,5.6-2.5,5.6-5.6,0-3.1-2.5-5.6-5.6-5.6h-17.6v-13.3c0-5.8,4.5-10.3,10.4-10.3h10c3.1.1,5.7-2.3,5.8-5.4s-2.3-5.7-5.4-5.8c-.2,0-.3,0-.5,0h-10ZM889,94.9h-.3s-4.6.5-9.1,3.3c-4.5,2.8-9.4,8.7-9.4,17.5s2.7,14.1,6.5,18.2c3.8,4.1,8.2,6.4,11.7,8.7,4,2.6,7.7,4.8,10,7,2.3,2.2,3.5,4,3.5,7.5,0,7.3-5.5,11.3-9.5,11.3-6.9,0-13.7-.4-13.7-.4-2.9-.2-5.4,2-5.5,4.9-.2,2.9,2,5.3,4.9,5.5,0,0,7,.4,14.4.4s19.9-9.1,19.9-21.7-3-11.6-6.7-15.1c-3.7-3.5-7.9-5.8-11.4-8.1-4-2.7-7.6-4.7-9.8-7.1-2.3-2.4-3.7-5.2-3.7-11.1s2.1-7.1,4.4-8.6c2.3-1.4,4.4-1.7,4.6-1.8h13.8c2.9.1,5.3-2.1,5.5-5,.1-2.9-2.1-5.3-5-5.5-.2,0-.3,0-.5,0h-14.6ZM930.6,115.9c-8.8,0-16,7.2-16,16v31.2c0,8.8,7.2,16,16,16h14.8c8.8,0,16-7.2,16-16v-31.2c0-8.8-7.2-16-16-16h-14.8ZM930.6,127.1h14.8c2.7,0,4.8,2,4.8,4.8v31.2c0,2.7-2,4.8-4.8,4.8h-14.8c-2.7,0-4.8-2-4.8-4.8v-31.2c0-2.7,2-4.8,4.8-4.8Z" inkscape:connector-curvature="0"/>
      <path id="path20109-9" class="cls-13" d="M1092.3,58.5c-1.2-.1-2.4.3-3.4,1.2l-17.5,20.1c-1.8,1.9-2.2,3.9-.4,6.3,6.7,7.6,14,13.1,14,13.1,1.3.9,2.7.7,4-.4l8.8-9.2c1.5-1.8,1.1-3.2-.3-4.6l-9.5-9.1-.9.9,8.1,10.7-8.4,8.8-12.3-12.6,17.9-18.9,20.9,22.6-38.3,38.5,6.7,7.1,38.6-40.4c2.4-2.2,2.6-7.3,0-9.5l-24.7-23.1c-1-1-2.2-1.6-3.3-1.7ZM1056.9,58.5c-2.8,0-5.4.7-5.8,3.2-.8,5.6,8.9,3.6,8.9,3.6l3.6,40.1,2.4.3-1.6-46s-3.9-1.1-7.5-1.1ZM1049.2,72.7c-1.6,0-2.9.8-3.4,1.9-.9,2,.7,4.7,3.6,6.1,0,0,0,0,0,0,2.9,1.4,6,.9,7-1.1.9-2-.7-4.7-3.6-6.1,0,0,0,0,0,0-1.2-.5-2.4-.8-3.6-.8ZM1015.2,78.1c-1.8,0-3.6.6-4.7,1.8l-23.1,24.7c-1.9,2-2.3,4.7-.5,6.8l20.1,17.5c1.9,1.8,3.9,2.2,6.3.4,7.6-6.7,13.1-14,13.1-14,.9-1.3.7-2.7-.4-4l-9.2-8.8c-1.8-1.5-3.2-1.1-4.6.3l-9.1,9.5.9.9,10.7-8.1,8.8,8.4-12.6,12.3-18.9-17.9,22.6-20.9,38.5,38.3,7.1-6.7-40.4-38.6c-1.1-1.2-2.9-1.9-4.7-1.9ZM1053.4,83.6c-1.6,0-2.9.8-3.4,1.9-.9,2,.7,4.7,3.6,6.1,2.9,1.4,6,.9,7-1.1,0,0,0,0,0,0,.9-2-.7-4.7-3.6-6.1,0,0,0,0,0,0-1.2-.5-2.4-.8-3.6-.8ZM862.3,93.8c-3.1,0-5.6,2.6-5.5,5.7h0v74c0,3.1,2.5,5.6,5.6,5.6,3.1,0,5.6-2.5,5.6-5.6v-74c0-3.1-2.4-5.6-5.5-5.7,0,0-.1,0-.2,0ZM822.6,94.1c-3.1,0-5.6,2.6-5.5,5.7,0,0,0,0,0,0v57.8c0,11.8,9.7,21.6,21.6,21.6h10c3.1.1,5.7-2.3,5.8-5.4s-2.3-5.7-5.4-5.8c-.2,0-.3,0-.5,0h-10c-5.8,0-10.4-4.5-10.4-10.4v-57.8c0-3.1-2.4-5.6-5.5-5.7,0,0,0,0-.1,0h0ZM970.2,94.1c-3.1,0-5.6,2.6-5.5,5.7v57.8c0,11.8,9.7,21.6,21.5,21.6h10c3.1.1,5.7-2.3,5.8-5.4s-2.3-5.7-5.4-5.8c-.2,0-.3,0-.5,0h-10c-5.8,0-10.3-4.5-10.3-10.4v-57.8c0-3.1-2.4-5.6-5.5-5.7,0,0-.1,0-.2,0h0ZM799,94.2c-11.8,0-21.6,9.7-21.6,21.5v13.4c-3,.6-5,3.5-4.4,6.6.4,2.2,2.2,4,4.4,4.4v33.4c-.1,3.1,2.3,5.7,5.4,5.8s5.7-2.3,5.8-5.4c0-.2,0-.3,0-.5v-33.3h17.6c3.1,0,5.6-2.5,5.6-5.6,0-3.1-2.5-5.6-5.6-5.6h-17.6v-13.3c0-5.8,4.5-10.3,10.4-10.3h10c3.1.1,5.7-2.3,5.8-5.4.1-3.1-2.3-5.7-5.4-5.8-.2,0-.3,0-.5,0h-10ZM889,94.9h-.3s-4.6.5-9.1,3.3c-4.5,2.8-9.4,8.7-9.4,17.5s2.7,14.1,6.5,18.2c3.8,4.1,8.2,6.4,11.7,8.7,4,2.6,7.7,4.8,10,7,2.3,2.2,3.5,4,3.5,7.5,0,7.3-5.5,11.3-9.5,11.3-6.9,0-13.7-.4-13.7-.4-2.9-.2-5.3,2-5.5,4.9-.2,2.8,2,5.3,4.8,5.5,0,0,7,.4,14.4.4s19.9-9.1,19.9-21.7-3-11.6-6.7-15.1c-3.7-3.5-7.9-5.8-11.4-8.1-4-2.7-7.6-4.7-9.8-7.1-2.3-2.4-3.7-5.2-3.7-11.1s2.1-7.1,4.5-8.6c2.3-1.4,4.4-1.7,4.6-1.8h13.8c2.9.1,5.3-2.1,5.5-5,.1-2.9-2.1-5.3-5-5.5-.2,0-.3,0-.5,0h-14.6ZM930.6,115.9c-8.8,0-16,7.2-16,16v31.2c0,8.8,7.2,16,16,16h14.8c8.8,0,16-7.2,16-16v-31.2c0-8.8-7.2-16-16-16h-14.8ZM1124.5,118.3c-1.9-.1-4,1.5-5.1,3.9-1.4,2.9-.9,6,1.1,7,0,0,0,0,0,0,2,.9,4.7-.7,6.1-3.6,1.4-2.9.9-6-1.1-7-.3-.1-.7-.2-1-.3ZM1113.7,122.6c-1.9-.1-3.9,1.5-5.1,3.9-1.4,2.9-.9,6,1.1,7,2,.9,4.7-.7,6.1-3.6,0,0,0,0,0,0,1.4-2.9.9-6-1.1-7-.3-.1-.7-.2-1-.3ZM1138,124c-5-.2-3.1,8.9-3.1,8.9l-40.1,3.6-.3,2.4,46-1.6s3.6-12.4-2-13.3c-.2,0-.3,0-.5,0h0ZM930.6,127.1h14.8c2.7,0,4.8,2,4.8,4.8v31.2c0,2.7-2,4.8-4.8,4.8h-14.8c-2.7,0-4.8-2-4.8-4.8v-31.2c0-2.7,2-4.8,4.8-4.8ZM1032.8,134.2l-46,1.6s-3.6,12.4,2,13.3c5.6.8,3.6-8.9,3.6-8.9l40.1-3.6.3-2.4ZM1016.6,139.4c-1.9-.1-3.9,1.5-5.1,3.9-1.4,2.9-.9,6,1.1,7,2,.9,4.7-.7,6.1-3.6h0c1.4-2.9.9-6-1.1-7,0,0,0,0,0,0-.3-.1-.7-.2-1-.3ZM1045.7,139.9l-38.6,40.4c-2.4,2.2-2.6,7.3,0,9.5l24.7,23.1c2,1.9,4.7,2.3,6.8.5l17.5-20.1c1.8-1.9,2.2-3.9.4-6.3-6.7-7.6-14-13.1-14-13.1-1.3-.9-2.7-.7-4,.4l-8.8,9.2c-1.5,1.8-1.1,3.2.3,4.6l9.5,9.1.9-.9-8.1-10.7,8.4-8.8,12.3,12.6-17.9,18.9-20.9-22.6,38.3-38.5-6.7-7.1ZM1117.4,142.6c-1-.1-2.2.2-3.3,1.1-7.6,6.7-13.1,14-13.1,14-.9,1.3-.7,2.7.4,4l9.2,8.8c1.8,1.5,3.2,1.1,4.6-.3l9.1-9.5-.9-.9-10.7,8.1-8.8-8.4,12.6-12.3,18.9,17.9-22.6,20.9-38.5-38.3-7.1,6.7,40.4,38.6c2.2,2.4,7.3,2.6,9.5,0l23.1-24.7c1.9-2,2.3-4.7.5-6.8l-20.1-17.5c-.9-.9-1.9-1.4-3-1.5ZM1005.7,143.6c-1.9-.1-4,1.5-5.1,3.9-1.4,2.9-.9,6,1.1,7,2,.9,4.7-.7,6.1-3.6,0,0,0,0,0,0,1.4-2.9.9-6-1.1-7-.3-.1-.7-.2-1-.3ZM1061.3,167.4l1.6,46s12.4,3.6,13.3-2c.8-5.6-8.9-3.6-8.9-3.6l-3.6-40.1-2.4-.3ZM1070.2,180.7c-1.6,0-2.9.8-3.4,1.9-.9,2,.7,4.7,3.6,6.1h0c2.9,1.4,6,.9,7-1.1.9-2-.7-4.7-3.6-6.1,0,0,0,0,0,0-1.2-.5-2.4-.8-3.6-.8ZM1074.4,191.6c-1.6,0-2.9.8-3.4,1.9-.9,2,.7,4.7,3.6,6.1,0,0,0,0,0,0,2.9,1.4,6,.9,7-1.1.9-2-.7-4.7-3.6-6.1h0c-1.2-.5-2.4-.8-3.6-.8Z"/>
      <circle id="path20223-3" class="cls-14" cx="1064" cy="136.5" r="40.9" transform="translate(758.8 1164.9) rotate(-80.8)"/>
      <circle id="path20223-2" class="cls-22" cx="1064" cy="136.5" r="40.9" transform="translate(758.8 1164.9) rotate(-80.8)"/>
      <path id="path20231-08" class="cls-18" d="M1044.3,107.4c-.6,0-1,.2-1.4.5-.2,2,.5,4.6,2,6-.1-.2-.3-.5-.5-1-.7-1.1-1.9-6.2.5-3.8,1.4,2.9,1.8,6.4,4,9,1.6,2.7,4.7,2.8,7.3,3.5,2.3,1.1,3,4.3,5.4,5,1.7,2.3-.4,5.1-1.4,7.3-1.9,3.4,2,5.4,3.2,8,2.5,3.4,4.9,8,3,12.3-1.1,3.1-1.4,6.6-2.2,9.9-.4,2.3-.9,7.2,1.6,7.6.5-2.5.3-5.2,2.3-7.1,2-3.8,5.9-6.1,8.8-8.8,1.4-1.6,4-5.3,6.6-7,1.2-2,.8-5.3,2.9-7.2,1.6-1.7,2.4-5.7-.7-6.2-4.2-1.7-7.6-4.8-10.3-8.3-3-1.6-4.9-2.1-8.1-3.1-.2,0-.5,1.7-1,1.7-.8,0,.2-2.2-1.5-2.2-.3,1-1.9,2.5-3.1,2.8-.4-.7-2-2.2-1.9-3.4,0-2.4-3.2-2.5-2-4.8-.7-2-3.6,3-4.8-.5-.7-3-.8-8.1-3.6-8.7-1.3-.5-3.6-1.5-5.2-1.4h0ZM1061.5,115.8c.3,0,1.5-.3,2.8-.3,1.3,0,3.4,1.1,3.8.7-.6-2-4.8-1.6-4.7-1.6-.6.5-2.3,1-1.9,1.1ZM1075.4,119.6c-.1.2-.6.2-.6-.1.2-.4.6,0,.6.1ZM1072.8,118.8c-2.4,0-.8-1.3-2.1-1.3-.9,0-.6,1-2.2.8,1.4.7,1.5.5,2.5,1,1.4,0,2.3,0,1.8-.6h0Z" inkscape:connector-curvature="0" sodipodi:nodetypes="cccccccccccccccccccssccccccccscccccccsccc"/>
      <path id="path20231-0" class="cls-20" d="M1044.3,107.4c-.6,0-1,.2-1.4.5-.2,2,.5,4.6,2,6-.1-.2-.3-.5-.5-1-.7-1.1-1.9-6.2.5-3.8,1.4,2.9,1.8,6.4,4,9,1.6,2.7,4.7,2.8,7.3,3.5,2.3,1.1,3,4.3,5.4,5,1.7,2.3-.4,5.1-1.4,7.3-1.9,3.4,2,5.4,3.2,8,2.5,3.4,4.9,8,3,12.3-1.1,3.1-1.4,6.6-2.2,9.9-.4,2.3-.9,7.2,1.6,7.6.5-2.5.3-5.2,2.3-7.1,2-3.8,5.9-6.1,8.8-8.8,1.4-1.6,4-5.3,6.6-7,1.2-2,.8-5.3,2.9-7.2,1.6-1.7,2.4-5.7-.7-6.2-4.2-1.7-7.6-4.8-10.3-8.3-3-1.6-4.9-2.1-8.1-3.1-.2,0-.5,1.7-1,1.7-.8,0,.2-2.2-1.5-2.2-.3,1-1.9,2.5-3.1,2.8-.4-.7-2-2.2-1.9-3.4,0-2.4-3.2-2.5-2-4.8-.7-2-3.6,3-4.8-.5-.7-3-.8-8.1-3.6-8.7-1.3-.5-3.6-1.5-5.2-1.4h0ZM1061.5,115.8c.3,0,1.5-.3,2.8-.3,1.3,0,3.4,1.1,3.8.7-.6-2-4.8-1.6-4.7-1.6-.6.5-2.3,1-1.9,1.1ZM1075.4,119.6c-.1.2-.6.2-.6-.1.2-.4.6,0,.6.1ZM1072.8,118.8c-2.4,0-.8-1.3-2.1-1.3-.9,0-.6,1-2.2.8,1.4.7,1.5.5,2.5,1,1.4,0,2.3,0,1.8-.6h0Z" inkscape:connector-curvature="0" sodipodi:nodetypes="cccccccccccccccccccssccccccccscccccccsccc"/>
    </g>
    <image width="1104" height="937" transform="translate(335 826) scale(.2)" xlink:href="../../../Downloads/Assinatura Francisco Teixeira.png"/>
  </g>
</svg>